<svg width="173" height="49" viewBox="0 0 173 49" fill="none" xmlns="http://www.w3.org/2000/svg">
<path d="M0.898438 16.5605C0.898438 7.72399 8.06188 0.560547 16.8984 0.560547H156.898C165.735 0.560547 172.898 7.72399 172.898 16.5605V32.5605C172.898 41.3971 165.735 48.5605 156.898 48.5605H16.8984C8.06188 48.5605 0.898438 41.3971 0.898438 32.5605V16.5605Z" fill="white"/>
<path d="M34.1921 37.2541C32.6879 37.2541 31.3685 37.0958 30.2338 36.7791C29.099 36.436 28.149 35.9742 27.3837 35.3937C26.6185 34.8131 26.0379 34.1402 25.6421 33.3749C25.2726 32.5832 25.0879 31.7256 25.0879 30.802C25.0879 30.67 25.0879 30.5513 25.0879 30.4457C25.1143 30.3402 25.1275 30.261 25.1275 30.2082H29.8775C29.8775 30.261 29.8775 30.3138 29.8775 30.3666C29.8775 30.4193 29.8775 30.4721 29.8775 30.5249C29.9039 31.2374 30.1282 31.818 30.5504 32.2666C30.9727 32.6888 31.5268 32.9923 32.2129 33.177C32.8991 33.3617 33.6248 33.4541 34.39 33.4541C35.0762 33.4541 35.7227 33.3881 36.3296 33.2562C36.963 33.0978 37.4776 32.8603 37.8734 32.5437C38.2956 32.2006 38.5067 31.7652 38.5067 31.2374C38.5067 30.5513 38.2428 30.0235 37.7151 29.6541C37.1873 29.2846 36.488 28.9811 35.6171 28.7436C34.7727 28.5061 33.8623 28.2554 32.8859 27.9915C32.015 27.754 31.1442 27.4901 30.2733 27.1999C29.4025 26.9096 28.6108 26.5401 27.8983 26.0915C27.2122 25.6429 26.6448 25.0624 26.1962 24.3498C25.774 23.6373 25.5629 22.7533 25.5629 21.6977C25.5629 20.6686 25.7872 19.7713 26.2358 19.0061C26.6844 18.2408 27.3046 17.6074 28.0962 17.1061C28.8879 16.5783 29.8247 16.1824 30.9067 15.9185C31.9886 15.6547 33.1629 15.5227 34.4296 15.5227C35.6699 15.5227 36.7914 15.6547 37.7942 15.9185C38.8234 16.1824 39.7074 16.5651 40.4463 17.0665C41.2116 17.5415 41.7922 18.1352 42.188 18.8477C42.6102 19.5338 42.8213 20.2991 42.8213 21.1436C42.8213 21.3283 42.8081 21.513 42.7818 21.6977C42.7818 21.8825 42.7818 21.988 42.7818 22.0144H38.0713V21.7373C38.0713 21.2359 37.913 20.8137 37.5963 20.4707C37.306 20.1012 36.8706 19.8109 36.29 19.5998C35.7359 19.3887 35.0366 19.2831 34.1921 19.2831C33.5588 19.2831 33.0046 19.3359 32.5296 19.4415C32.0546 19.547 31.6588 19.6922 31.3421 19.8769C31.0518 20.0616 30.8275 20.2727 30.6692 20.5102C30.5108 20.7477 30.4317 21.0116 30.4317 21.3019C30.4317 21.8033 30.6296 22.1991 31.0254 22.4894C31.4213 22.7797 31.949 23.0304 32.6088 23.2415C33.2949 23.4526 34.0338 23.6769 34.8255 23.9144C35.7755 24.1783 36.7519 24.4554 37.7546 24.7457C38.7574 25.0096 39.681 25.3526 40.5255 25.7749C41.3963 26.1971 42.0956 26.7908 42.6234 27.5561C43.1512 28.3214 43.4151 29.3374 43.4151 30.6041C43.4151 31.818 43.1776 32.8603 42.7026 33.7312C42.254 34.5756 41.6074 35.2617 40.763 35.7895C39.9449 36.2909 38.9685 36.6603 37.8338 36.8978C36.7255 37.1353 35.5116 37.2541 34.1921 37.2541Z" fill="#191617"/>
<path d="M55.37 37.2541C54.0769 37.2541 53.0609 37.0034 52.322 36.502C51.5831 35.9742 51.0553 35.3145 50.7387 34.5228C50.4484 33.7048 50.3033 32.8735 50.3033 32.0291V19.9165H47.8095V15.9581H50.422L51.2928 10.1393H55.1325V15.9581H58.7346V19.9165H55.1325V31.5541C55.1325 32.1082 55.2776 32.5437 55.5679 32.8603C55.8582 33.1506 56.2936 33.2957 56.8741 33.2957H58.7346V36.6208C58.4707 36.7263 58.1408 36.8187 57.745 36.8978C57.3755 37.0034 56.9797 37.0826 56.5575 37.1353C56.1352 37.2145 55.7394 37.2541 55.37 37.2541Z" fill="#191617"/>
<path d="M71.3005 37.2541C69.2949 37.2541 67.6588 36.7131 66.3921 35.6312C65.1519 34.5228 64.5317 32.6492 64.5317 30.0103V15.9581H69.3609V29.1395C69.3609 29.8784 69.4401 30.4985 69.5984 30.9999C69.7831 31.4749 70.0338 31.8707 70.3505 32.1874C70.6936 32.4777 71.1026 32.6888 71.5776 32.8207C72.0526 32.9527 72.5804 33.0187 73.1609 33.0187C74.0318 33.0187 74.8102 32.8075 75.4964 32.3853C76.2089 31.9631 76.763 31.3825 77.1589 30.6436C77.5811 29.8784 77.7922 29.0207 77.7922 28.0707V15.9581H82.6214V36.7791H78.6235L78.2276 34.0082H77.9505C77.4755 34.6416 76.9082 35.209 76.2485 35.7103C75.6151 36.1853 74.8762 36.5548 74.0318 36.8187C73.2137 37.109 72.3033 37.2541 71.3005 37.2541Z" fill="#191617"/>
<path d="M97.3864 37.2541C95.6975 37.2541 94.2329 36.8715 92.9926 36.1062C91.7523 35.3409 90.7891 34.1534 90.103 32.5437C89.4433 30.9339 89.1134 28.8624 89.1134 26.329C89.1134 23.8221 89.4565 21.7769 90.1426 20.1936C90.8287 18.5838 91.7787 17.3963 92.9926 16.631C94.2065 15.8658 95.5787 15.4831 97.1093 15.4831C98.0593 15.4831 98.9302 15.5887 99.7218 15.7998C100.514 16.0109 101.213 16.3408 101.82 16.7894C102.427 17.2116 102.941 17.7394 103.364 18.3727H103.601V8.16016H108.43V36.7791H104.432L104.036 34.0082H103.759C103.1 35.0902 102.202 35.9083 101.068 36.4624C99.9593 36.9902 98.7322 37.2541 97.3864 37.2541ZM98.8906 33.0978C99.9989 33.0978 100.896 32.8471 101.582 32.3457C102.268 31.8443 102.77 31.1186 103.086 30.1686C103.429 29.2186 103.601 28.0575 103.601 26.6853V26.1707C103.601 25.1415 103.509 24.2179 103.324 23.3998C103.139 22.5818 102.849 21.8957 102.453 21.3415C102.084 20.7873 101.595 20.3651 100.989 20.0748C100.408 19.7845 99.7086 19.6394 98.8906 19.6394C97.7031 19.6394 96.7531 19.8769 96.0406 20.3519C95.3544 20.8005 94.8531 21.513 94.5364 22.4894C94.2461 23.4394 94.101 24.6533 94.101 26.1311V26.6853C94.101 28.1367 94.2461 29.3374 94.5364 30.2874C94.8531 31.2374 95.3544 31.9499 96.0406 32.4249C96.7531 32.8735 97.7031 33.0978 98.8906 33.0978Z" fill="#191617"/>
<path d="M115.943 12.7519V8.16016H120.772V12.7519H115.943ZM115.943 36.7791V15.9581H120.772V36.7791H115.943Z" fill="#191617"/>
<path d="M137.554 37.2541C135.284 37.2541 133.384 36.8715 131.854 36.1062C130.323 35.3145 129.175 34.1138 128.41 32.5041C127.645 30.8943 127.262 28.8492 127.262 26.3686C127.262 23.8617 127.645 21.8165 128.41 20.2332C129.175 18.6234 130.323 17.4359 131.854 16.6706C133.384 15.879 135.284 15.4831 137.554 15.4831C139.85 15.4831 141.75 15.879 143.254 16.6706C144.784 17.4359 145.932 18.6234 146.698 20.2332C147.463 21.8165 147.846 23.8617 147.846 26.3686C147.846 28.8492 147.463 30.8943 146.698 32.5041C145.932 34.1138 144.784 35.3145 143.254 36.1062C141.75 36.8715 139.85 37.2541 137.554 37.2541ZM137.554 33.2957C138.821 33.2957 139.837 33.0582 140.602 32.5832C141.393 32.0818 141.961 31.3429 142.304 30.3666C142.673 29.3638 142.858 28.1235 142.858 26.6457V26.0915C142.858 24.6137 142.673 23.3866 142.304 22.4103C141.961 21.4075 141.393 20.6686 140.602 20.1936C139.837 19.6922 138.821 19.4415 137.554 19.4415C136.287 19.4415 135.258 19.6922 134.466 20.1936C133.701 20.6686 133.134 21.4075 132.764 22.4103C132.421 23.3866 132.25 24.6137 132.25 26.0915V26.6457C132.25 28.1235 132.421 29.3638 132.764 30.3666C133.134 31.3429 133.701 32.0818 134.466 32.5832C135.258 33.0582 136.287 33.2957 137.554 33.2957Z" fill="#191617"/>
</svg>
