<svg width="112" height="33" viewBox="0 0 112 33" fill="none" xmlns="http://www.w3.org/2000/svg">
<g clip-path="url(#clip0_14255_14973)">
<path d="M93.9895 2.51172H92.5691C91.9026 2.51172 91.3672 3.01432 91.3672 3.63711V4.97011H92.7876C93.4541 4.97011 93.9895 4.4675 93.9895 3.84471V2.51172Z" fill="white"/>
<path d="M93.9895 8.41406H91.3672V24.1478H93.9895V8.41406Z" fill="white"/>
<path d="M22.5973 19.8311C21.7232 20.891 20.4776 21.5575 19.09 21.5575C16.7627 21.5575 14.8288 19.7 14.4136 17.2416H21.7669H26.4106C26.4433 16.9248 26.4652 16.597 26.4652 16.2692C26.4652 11.9315 23.1546 8.40234 19.09 8.40234C15.0255 8.40234 11.7148 11.9424 11.7148 16.2801C11.7148 20.6178 15.0255 24.147 19.09 24.147C21.9527 24.147 24.4438 22.3878 25.6676 19.8311H22.5973ZM19.09 11.0028C21.1988 11.0028 23.0016 12.5434 23.6134 14.663H14.5666C15.1784 12.5434 16.9813 11.0028 19.09 11.0028Z" fill="white"/>
<path d="M81.0431 24.1458C76.9786 24.1458 73.668 20.6166 73.668 16.279C73.668 11.9413 76.9786 8.41211 81.0431 8.41211C85.1077 8.41211 88.4183 11.9413 88.4183 16.279C88.4183 20.6166 85.1077 24.1458 81.0431 24.1458ZM81.0431 11.0016C78.4209 11.0016 76.2903 13.3726 76.2903 16.279C76.2903 19.1853 78.4209 21.5563 81.0431 21.5563C83.6654 21.5563 85.796 19.1853 85.796 16.279C85.796 13.3726 83.6654 11.0016 81.0431 11.0016Z" fill="white"/>
<path d="M110.848 20.8471C110.619 20.9127 110.433 20.9673 110.269 21.011V18.9351V18.4106V14.0292C110.237 12.1936 109.789 10.9808 107.647 9.58226C104.653 7.62647 99.7912 8.18371 97.8463 10.7077C97.2563 11.4616 96.9613 12.3684 96.9395 13.3846L99.5617 13.4173C99.5727 12.9257 99.7038 12.5214 99.9551 12.1827C100.96 10.8715 104.216 10.3689 106.161 11.6364C107.254 12.3466 107.549 12.7727 107.625 13.4938C107.134 13.7124 105.844 14.1166 102.796 14.4007C100.392 14.6192 98.6986 15.4278 97.7371 16.8045C96.5898 18.4543 96.9832 20.279 97.1252 20.7707C97.3546 22.0709 98.7532 24.1796 102.588 24.1796C102.916 24.1796 103.266 24.1687 103.626 24.1359C103.921 24.1141 105.975 23.9283 107.822 22.7155C107.909 22.8794 107.986 23.1526 108.204 23.4804C108.63 24.125 109.21 24.1359 109.734 24.1359C110.4 24.1359 110.936 23.6989 111.679 23.2181L110.848 20.8471ZM103.43 21.6448H103.386C100.25 21.9288 99.7693 20.6068 99.7038 20.3555V20.3008L99.6491 20.1479C99.6273 20.0605 99.3432 19.0006 99.9223 18.1812C100.545 17.3071 101.955 17.0011 103.036 16.9028C104.97 16.728 106.5 16.4767 107.647 16.1489V18.4106V18.9351V19.2519C106.445 21.4262 103.451 21.6448 103.43 21.6448Z" fill="white"/>
<path d="M8.97288 8.41406H8.32824C8.30638 8.41406 8.29546 8.41406 8.27361 8.41406C6.45986 8.41406 4.81001 9.11334 3.52072 10.2715V8.41406H0.898438V24.1478H3.52072V22.2903V16.2809C3.52072 13.3745 5.65132 11.0036 8.27361 11.0036C8.29546 11.0036 8.30638 11.0036 8.32824 11.0036H10.732V10.9926L8.97288 8.41406Z" fill="white"/>
<path d="M41.5441 2.51172V4.55491V6.59811V10.2802C40.2548 9.12205 38.6049 8.42278 36.7912 8.42278C32.7266 8.42278 29.416 11.9519 29.416 16.2787C29.416 20.6164 32.7266 24.1346 36.7912 24.1346C38.6049 24.1346 40.2548 23.4353 41.5441 22.2772V24.1346H44.1664V6.59811V4.55491V2.51172H41.5441ZM36.7912 21.567C34.1689 21.567 32.0383 19.196 32.0383 16.2896C32.0383 13.3833 34.1689 11.0123 36.7912 11.0123C39.4135 11.0123 41.5441 13.3833 41.5441 16.2896C41.5441 19.196 39.4135 21.567 36.7912 21.567Z" fill="white"/>
<path d="M70.7171 8.41406H68.0949V10.2824C66.8056 9.11334 65.1557 8.41406 63.342 8.41406C59.2774 8.41406 55.9668 11.9541 55.9668 16.3137C55.9668 20.6732 59.2774 24.2133 63.342 24.2133C65.1557 24.2133 66.8056 23.514 68.0949 22.3449V24.104V24.1259C68.0949 24.1368 68.0949 25.5245 67.1443 26.475C66.4887 27.1306 65.4835 27.4584 64.1614 27.4584H58.5891L55.9668 30.0479H64.1614C66.2265 30.0479 67.8654 29.4469 69.0345 28.2669C70.6844 26.5952 70.7171 24.41 70.7171 24.0931V8.41406ZM63.342 21.6129C60.7197 21.6129 58.5891 19.231 58.5891 16.3137C58.5891 13.3964 60.7197 11.0145 63.342 11.0145C65.9642 11.0145 68.0949 13.3855 68.0949 16.3137C68.0949 19.231 65.9642 21.6129 63.342 21.6129Z" fill="white"/>
</g>
<defs>
<clipPath id="clip0_14255_14973">
<rect width="110.791" height="32.56" fill="white" transform="translate(0.898438)"/>
</clipPath>
</defs>
</svg>
