<svg width="85" height="71" viewBox="0 0 85 71" fill="none" xmlns="http://www.w3.org/2000/svg">
<g clip-path="url(#clip0_14255_14943)">
<path d="M31.4109 48.6516C31.3154 48.5561 31.2438 48.4845 31.1721 48.4128C25.4645 43.7321 21.0465 42.156 17.7032 42.1321C14.3837 42.1082 11.8285 43.6127 9.87022 45.7859C7.86421 47.9591 6.50299 50.7532 5.61939 53.0457C5.18953 54.192 4.87908 55.195 4.68803 55.8876C4.61639 56.198 4.54474 56.4369 4.49698 56.6279C4.52086 56.8428 4.54474 57.1055 4.56862 57.416C4.59251 57.9652 4.61639 58.7772 4.44922 59.5653C5.33282 60.2101 5.95372 60.7832 6.38358 61.2608C6.59851 61.4996 6.76568 61.6907 6.88508 61.8579C13.9061 67.2311 19.9719 66.7535 24.5093 64.3892C26.8496 63.1713 28.8318 61.428 30.3124 59.6608C31.8169 57.8697 32.7005 56.1503 32.9871 55.0518C33.5363 53.0219 34.205 51.5651 34.9214 50.5144C33.7751 50.1323 32.9393 49.7024 32.3184 49.3203C31.9363 49.0815 31.6258 48.8427 31.4109 48.6516Z" fill="#1E1E1E"/>
<path d="M31.4109 48.6516C31.3154 48.5561 31.2438 48.4845 31.1721 48.4128C25.4645 43.7321 21.0465 42.156 17.7032 42.1321C14.3837 42.1082 11.8285 43.6127 9.87022 45.7859C7.86421 47.9591 6.50299 50.7532 5.61939 53.0457C5.18953 54.192 4.87908 55.195 4.68803 55.8876C4.61639 56.198 4.54474 56.4369 4.49698 56.6279C4.52086 56.8428 4.54474 57.1055 4.56862 57.416C4.59251 57.9652 4.61639 58.7772 4.44922 59.5653C5.33282 60.2101 5.95372 60.7832 6.38358 61.2608C6.59851 61.4996 6.76568 61.6907 6.88508 61.8579C13.9061 67.2311 19.9719 66.7535 24.5093 64.3892C26.8496 63.1713 28.8318 61.428 30.3124 59.6608C31.8169 57.8697 32.7005 56.1503 32.9871 55.0518C33.5363 53.0219 34.205 51.5651 34.9214 50.5144C33.7751 50.1323 32.9393 49.7024 32.3184 49.3203C31.9363 49.0815 31.6258 48.8427 31.4109 48.6516Z" stroke="#1E1E1E" stroke-width="3.82097"/>
<path d="M31.4109 48.6516C31.3154 48.5561 31.2438 48.4845 31.1721 48.4128C25.4645 43.7321 21.0465 42.156 17.7032 42.1321C14.3837 42.1082 11.8285 43.6127 9.87022 45.7859C7.86421 47.9591 6.50299 50.7532 5.61939 53.0457C5.18953 54.192 4.87908 55.195 4.68803 55.8876C4.61639 56.198 4.54474 56.4369 4.49698 56.6279C4.52086 56.8428 4.54474 57.1055 4.56862 57.416C4.59251 57.9652 4.61639 58.7772 4.44922 59.5653C5.33282 60.2101 5.95372 60.7832 6.38358 61.2608C6.59851 61.4996 6.76568 61.6907 6.88508 61.8579C13.9061 67.2311 19.9719 66.7535 24.5093 64.3892C26.8496 63.1713 28.8318 61.428 30.3124 59.6608C31.8169 57.8697 32.7005 56.1503 32.9871 55.0518C33.5363 53.0219 34.205 51.5651 34.9214 50.5144C33.7751 50.1323 32.9393 49.7024 32.3184 49.3203C31.9363 49.0815 31.6258 48.8427 31.4109 48.6516Z" stroke="white" stroke-width="1.43286"/>
<path d="M8.96537 3.44521C21.5507 0.555603 29.8374 5.21241 35.0196 11.6125C37.6704 14.8842 39.5092 18.6097 40.6316 22.0724C41.7779 25.559 42.1361 28.6158 41.969 30.4785C41.6346 34.3711 42.0167 37.0697 42.6854 38.9324C40.3689 38.5265 38.6495 38.5265 37.4316 38.6936C36.7868 38.7653 36.2853 38.9085 35.9271 39.0041C35.7599 39.0518 35.6166 39.1235 35.4972 39.1712C25.2761 41.8698 18.3029 41.2011 13.5505 38.9802C8.7982 36.7593 5.98024 32.8666 4.33244 28.4964C2.66077 24.1023 2.23091 19.3022 2.20703 15.529C2.20703 13.6663 2.30256 12.0901 2.39808 10.9677C2.44584 10.4185 2.4936 9.98861 2.54137 9.67816C2.54137 9.65428 2.54137 9.6304 2.54137 9.60652C2.54137 9.58263 2.56525 9.55875 2.56525 9.55875C2.70853 9.29606 2.89958 8.93785 3.09063 8.48411C3.47273 7.64827 3.92647 6.40646 3.99811 5.093C5.78919 4.75867 7.05488 4.35269 7.9146 3.97059C8.39222 3.75566 8.72656 3.58849 8.96537 3.44521Z" fill="#1E1E1E"/>
<path d="M8.96537 3.44521C21.5507 0.555603 29.8374 5.21241 35.0196 11.6125C37.6704 14.8842 39.5092 18.6097 40.6316 22.0724C41.7779 25.559 42.1361 28.6158 41.969 30.4785C41.6346 34.3711 42.0167 37.0697 42.6854 38.9324C40.3689 38.5265 38.6495 38.5265 37.4316 38.6936C36.7868 38.7653 36.2853 38.9085 35.9271 39.0041C35.7599 39.0518 35.6166 39.1235 35.4972 39.1712C25.2761 41.8698 18.3029 41.2011 13.5505 38.9802C8.7982 36.7593 5.98024 32.8666 4.33244 28.4964C2.66077 24.1023 2.23091 19.3022 2.20703 15.529C2.20703 13.6663 2.30256 12.0901 2.39808 10.9677C2.44584 10.4185 2.4936 9.98861 2.54137 9.67816C2.54137 9.65428 2.54137 9.6304 2.54137 9.60652C2.54137 9.58263 2.56525 9.55875 2.56525 9.55875C2.70853 9.29606 2.89958 8.93785 3.09063 8.48411C3.47273 7.64827 3.92647 6.40646 3.99811 5.093C5.78919 4.75867 7.05488 4.35269 7.9146 3.97059C8.39222 3.75566 8.72656 3.58849 8.96537 3.44521Z" stroke="#1E1E1E" stroke-width="3.82097"/>
<path d="M8.96537 3.44521C21.5507 0.555603 29.8374 5.21241 35.0196 11.6125C37.6704 14.8842 39.5092 18.6097 40.6316 22.0724C41.7779 25.559 42.1361 28.6158 41.969 30.4785C41.6346 34.3711 42.0167 37.0697 42.6854 38.9324C40.3689 38.5265 38.6495 38.5265 37.4316 38.6936C36.7868 38.7653 36.2853 38.9085 35.9271 39.0041C35.7599 39.0518 35.6166 39.1235 35.4972 39.1712C25.2761 41.8698 18.3029 41.2011 13.5505 38.9802C8.7982 36.7593 5.98024 32.8666 4.33244 28.4964C2.66077 24.1023 2.23091 19.3022 2.20703 15.529C2.20703 13.6663 2.30256 12.0901 2.39808 10.9677C2.44584 10.4185 2.4936 9.98861 2.54137 9.67816C2.54137 9.65428 2.54137 9.6304 2.54137 9.60652C2.54137 9.58263 2.56525 9.55875 2.56525 9.55875C2.70853 9.29606 2.89958 8.93785 3.09063 8.48411C3.47273 7.64827 3.92647 6.40646 3.99811 5.093C5.78919 4.75867 7.05488 4.35269 7.9146 3.97059C8.39222 3.75566 8.72656 3.58849 8.96537 3.44521Z" stroke="white" stroke-width="1.43286"/>
<path d="M54.9312 67.9238C69.9008 67.9238 82.0361 55.7885 82.0361 40.8188C82.0361 25.8492 69.9008 13.7139 54.9312 13.7139C39.9615 13.7139 27.8262 25.8492 27.8262 40.8188C27.8262 55.7885 39.9615 67.9238 54.9312 67.9238Z" fill="#1E1E1E"/>
<path d="M54.9312 67.9238C69.9008 67.9238 82.0361 55.7885 82.0361 40.8188C82.0361 25.8492 69.9008 13.7139 54.9312 13.7139C39.9615 13.7139 27.8262 25.8492 27.8262 40.8188C27.8262 55.7885 39.9615 67.9238 54.9312 67.9238Z" stroke="#1E1E1E" stroke-width="3.82097"/>
<path d="M54.9312 67.9238C69.9008 67.9238 82.0361 55.7885 82.0361 40.8188C82.0361 25.8492 69.9008 13.7139 54.9312 13.7139C39.9615 13.7139 27.8262 25.8492 27.8262 40.8188C27.8262 55.7885 39.9615 67.9238 54.9312 67.9238Z" stroke="white" stroke-width="1.43286"/>
<path d="M75.3989 38.6458C75.5421 39.004 76.0675 38.6697 75.9959 38.3115C75.1362 33.9412 71.2197 20.2574 55.4821 17.9648C55.0283 17.8932 54.8612 18.6335 55.3149 18.8245C57.6075 19.6604 64.0554 22.8843 67.948 26.9441C72.1033 31.3382 74.1332 35.4696 75.3989 38.6458Z" fill="white"/>
</g>
<defs>
<clipPath id="clip0_14255_14943">
<rect width="84.0613" height="69.4792" fill="white" transform="translate(0.103516 0.540039)"/>
</clipPath>
</defs>
</svg>
