<svg width="50" height="16" viewBox="0 0 50 16" fill="none" xmlns="http://www.w3.org/2000/svg">
<g clip-path="url(#clip0_14255_15114)">
<path d="M41.664 1.68262H41.0293C40.7314 1.68262 40.4922 1.90722 40.4922 2.18553V2.7812H41.1269C41.4248 2.7812 41.664 2.5566 41.664 2.27829V1.68262Z" fill="#191617"/>
<path d="M41.664 4.32031H40.4922V11.3513H41.664V4.32031Z" fill="#191617"/>
<path d="M9.76151 9.42263C9.3709 9.89624 8.81428 10.1941 8.19419 10.1941C7.1542 10.1941 6.28998 9.36404 6.10444 8.26545H9.39043H11.4655C11.4802 8.12386 11.4899 7.97738 11.4899 7.8309C11.4899 5.89251 10.0105 4.31543 8.19419 4.31543C6.37787 4.31543 4.89844 5.89739 4.89844 7.83578C4.89844 9.77418 6.37787 11.3513 8.19419 11.3513C9.47343 11.3513 10.5867 10.5652 11.1335 9.42263H9.76151ZM8.19419 5.47749C9.13654 5.47749 9.94216 6.16593 10.2156 7.11316H6.1728C6.44622 6.16593 7.25185 5.47749 8.19419 5.47749Z" fill="#191617"/>
<path d="M35.8778 11.3513C34.0615 11.3513 32.582 9.77418 32.582 7.83578C32.582 5.89739 34.0615 4.32031 35.8778 4.32031C37.6941 4.32031 39.1735 5.89739 39.1735 7.83578C39.1735 9.77418 37.6941 11.3513 35.8778 11.3513ZM35.8778 5.47749C34.706 5.47749 33.7539 6.53701 33.7539 7.83578C33.7539 9.13456 34.706 10.1941 35.8778 10.1941C37.0496 10.1941 38.0017 9.13456 38.0017 7.83578C38.0017 6.53701 37.0496 5.47749 35.8778 5.47749Z" fill="#191617"/>
<path d="M49.198 9.87687C49.0954 9.90616 49.0124 9.93058 48.9392 9.95011V9.02241V8.78805V6.83013C48.9245 6.00985 48.7244 5.46788 47.7674 4.84291C46.4295 3.96892 44.2568 4.21793 43.3877 5.34582C43.124 5.68272 42.9922 6.08797 42.9824 6.54205L44.1542 6.5567C44.1591 6.33698 44.2177 6.15633 44.33 6.00497C44.7792 5.41905 46.2342 5.19445 47.1033 5.76084C47.5916 6.07821 47.7234 6.26863 47.7576 6.59088C47.5379 6.68853 46.9617 6.86919 45.5995 6.99613C44.5253 7.09379 43.7685 7.4551 43.3389 8.07031C42.8262 8.80758 43.002 9.62297 43.0654 9.84269C43.168 10.4237 43.7929 11.3661 45.5067 11.3661C45.6532 11.3661 45.8094 11.3612 45.9706 11.3465C46.1024 11.3368 47.0203 11.2538 47.8455 10.7118C47.8846 10.785 47.9187 10.9071 48.0164 11.0536C48.2068 11.3416 48.4656 11.3465 48.6999 11.3465C48.9978 11.3465 49.237 11.1512 49.5691 10.9364L49.198 9.87687ZM45.8827 10.2333H45.8632C44.4619 10.3602 44.247 9.76945 44.2177 9.65715V9.63274L44.1933 9.56438C44.1835 9.52532 44.0566 9.05171 44.3154 8.68551C44.5937 8.29491 45.2235 8.15819 45.7069 8.11425C46.5711 8.03613 47.2547 7.92383 47.7674 7.77735V8.78805V9.02241V9.16401C47.2303 10.1356 45.8925 10.2333 45.8827 10.2333Z" fill="#191617"/>
<path d="M3.6727 4.32031H3.38462C3.37486 4.32031 3.36997 4.32031 3.36021 4.32031C2.5497 4.32031 1.81242 4.6328 1.23628 5.15035V4.32031H0.0644531V11.3513H1.23628V10.5212V7.83578C1.23628 6.53701 2.18838 5.47749 3.36021 5.47749C3.36997 5.47749 3.37486 5.47749 3.38462 5.47749H4.45879V5.47261L3.6727 4.32031Z" fill="#191617"/>
<path d="M18.2283 1.68262V2.59566V3.50871V5.15415C17.6521 4.63659 16.9149 4.3241 16.1043 4.3241C14.288 4.3241 12.8086 5.90118 12.8086 7.83469C12.8086 9.77309 14.288 11.3453 16.1043 11.3453C16.9149 11.3453 17.6521 11.0328 18.2283 10.5152V11.3453H19.4001V3.50871V2.59566V1.68262H18.2283ZM16.1043 10.1979C14.9325 10.1979 13.9804 9.13835 13.9804 7.83958C13.9804 6.5408 14.9325 5.48128 16.1043 5.48128C17.2762 5.48128 18.2283 6.5408 18.2283 7.83958C18.2283 9.13835 17.2762 10.1979 16.1043 10.1979Z" fill="#191617"/>
<path d="M31.2634 4.32031H30.0916V5.15524C29.5154 4.6328 28.7781 4.32031 27.9676 4.32031C26.1513 4.32031 24.6719 5.90228 24.6719 7.85043C24.6719 9.79859 26.1513 11.3806 27.9676 11.3806C28.7781 11.3806 29.5154 11.0681 30.0916 10.5456V11.3317V11.3415C30.0916 11.3464 30.0916 11.9665 29.6668 12.3913C29.3738 12.6842 28.9246 12.8307 28.3338 12.8307H25.8437L24.6719 13.9879H28.3338C29.2566 13.9879 29.989 13.7193 30.5115 13.192C31.2487 12.445 31.2634 11.4684 31.2634 11.3268V4.32031ZM27.9676 10.2185C26.7958 10.2185 25.8437 9.15409 25.8437 7.85043C25.8437 6.54678 26.7958 5.48237 27.9676 5.48237C29.1395 5.48237 30.0916 6.5419 30.0916 7.85043C30.0916 9.15409 29.1395 10.2185 27.9676 10.2185Z" fill="#191617"/>
</g>
<defs>
<clipPath id="clip0_14255_15114">
<rect width="49.5096" height="14.5501" fill="white" transform="translate(0.0644531 0.560547)"/>
</clipPath>
</defs>
</svg>
