<svg width="38" height="32" viewBox="0 0 38 32" fill="none" xmlns="http://www.w3.org/2000/svg">
<g clip-path="url(#clip0_14255_15084)">
<path d="M13.9898 21.5356C13.9471 21.4929 13.9151 21.4609 13.8831 21.4289C11.3326 19.3372 9.35828 18.6329 7.86424 18.6222C6.38086 18.6115 5.23898 19.2838 4.3639 20.255C3.46747 21.2261 2.85918 22.4747 2.46432 23.4992C2.27223 24.0114 2.1335 24.4597 2.04812 24.7691C2.01611 24.9079 1.98409 25.0146 1.96275 25.1C1.97342 25.196 1.98409 25.3134 1.99477 25.4521C2.00544 25.6976 2.01611 26.0604 1.94141 26.4126C2.33626 26.7007 2.61373 26.9568 2.80582 27.1703C2.90187 27.277 2.97657 27.3624 3.02993 27.4371C6.16743 29.8382 8.87805 29.6248 10.9057 28.5683C11.9515 28.024 12.8373 27.245 13.4989 26.4553C14.1713 25.6549 14.5661 24.8865 14.6942 24.3956C14.9396 23.4885 15.2384 22.8375 15.5586 22.368C15.0463 22.1972 14.6728 22.0051 14.3954 21.8344C14.2246 21.7277 14.0859 21.621 13.9898 21.5356Z" fill="#1E1E1E"/>
<path d="M13.9898 21.5356C13.9471 21.4929 13.9151 21.4609 13.8831 21.4289C11.3326 19.3372 9.35828 18.6329 7.86424 18.6222C6.38086 18.6115 5.23898 19.2838 4.3639 20.255C3.46747 21.2261 2.85918 22.4747 2.46432 23.4992C2.27223 24.0114 2.1335 24.4597 2.04812 24.7691C2.01611 24.9079 1.98409 25.0146 1.96275 25.1C1.97342 25.196 1.98409 25.3134 1.99477 25.4521C2.00544 25.6976 2.01611 26.0604 1.94141 26.4126C2.33626 26.7007 2.61373 26.9568 2.80582 27.1703C2.90187 27.277 2.97657 27.3624 3.02993 27.4371C6.16743 29.8382 8.87805 29.6248 10.9057 28.5683C11.9515 28.024 12.8373 27.245 13.4989 26.4553C14.1713 25.6549 14.5661 24.8865 14.6942 24.3956C14.9396 23.4885 15.2384 22.8375 15.5586 22.368C15.0463 22.1972 14.6728 22.0051 14.3954 21.8344C14.2246 21.7277 14.0859 21.621 13.9898 21.5356Z" stroke="#1E1E1E" stroke-width="1.70748"/>
<path d="M13.9898 21.5356C13.9471 21.4929 13.9151 21.4609 13.8831 21.4289C11.3326 19.3372 9.35828 18.6329 7.86424 18.6222C6.38086 18.6115 5.23898 19.2838 4.3639 20.255C3.46747 21.2261 2.85918 22.4747 2.46432 23.4992C2.27223 24.0114 2.1335 24.4597 2.04812 24.7691C2.01611 24.9079 1.98409 25.0146 1.96275 25.1C1.97342 25.196 1.98409 25.3134 1.99477 25.4521C2.00544 25.6976 2.01611 26.0604 1.94141 26.4126C2.33626 26.7007 2.61373 26.9568 2.80582 27.1703C2.90187 27.277 2.97657 27.3624 3.02993 27.4371C6.16743 29.8382 8.87805 29.6248 10.9057 28.5683C11.9515 28.024 12.8373 27.245 13.4989 26.4553C14.1713 25.6549 14.5661 24.8865 14.6942 24.3956C14.9396 23.4885 15.2384 22.8375 15.5586 22.368C15.0463 22.1972 14.6728 22.0051 14.3954 21.8344C14.2246 21.7277 14.0859 21.621 13.9898 21.5356Z" stroke="white" stroke-width="0.640306"/>
<path d="M3.95956 1.33379C9.58358 0.0425019 13.2867 2.1235 15.6025 4.98353C16.787 6.44556 17.6088 8.11036 18.1103 9.65776C18.6226 11.2158 18.7826 12.5818 18.7079 13.4142C18.5585 15.1537 18.7293 16.3596 19.0281 17.192C17.9929 17.0106 17.2246 17.0106 16.6803 17.0853C16.3922 17.1173 16.1681 17.1814 16.008 17.224C15.9333 17.2454 15.8693 17.2774 15.8159 17.2987C11.2484 18.5047 8.13222 18.2058 6.00854 17.2134C3.88486 16.2209 2.62559 14.4814 1.88924 12.5285C1.14222 10.5649 0.950125 8.41984 0.939453 6.7337C0.939453 5.9013 0.98214 5.19696 1.02483 4.69539C1.04617 4.44994 1.06751 4.25785 1.08886 4.11912C1.08886 4.10844 1.08886 4.09777 1.08886 4.0871C1.08886 4.07643 1.09953 4.06576 1.09953 4.06576C1.16356 3.94837 1.24893 3.78829 1.33431 3.58553C1.50506 3.21202 1.70782 2.65708 1.73984 2.07014C2.54022 1.92073 3.10582 1.73931 3.49001 1.56856C3.70344 1.47252 3.85285 1.39782 3.95956 1.33379Z" fill="#1E1E1E"/>
<path d="M3.95956 1.33379C9.58358 0.0425019 13.2867 2.1235 15.6025 4.98353C16.787 6.44556 17.6088 8.11036 18.1103 9.65776C18.6226 11.2158 18.7826 12.5818 18.7079 13.4142C18.5585 15.1537 18.7293 16.3596 19.0281 17.192C17.9929 17.0106 17.2246 17.0106 16.6803 17.0853C16.3922 17.1173 16.1681 17.1814 16.008 17.224C15.9333 17.2454 15.8693 17.2774 15.8159 17.2987C11.2484 18.5047 8.13222 18.2058 6.00854 17.2134C3.88486 16.2209 2.62559 14.4814 1.88924 12.5285C1.14222 10.5649 0.950125 8.41984 0.939453 6.7337C0.939453 5.9013 0.98214 5.19696 1.02483 4.69539C1.04617 4.44994 1.06751 4.25785 1.08886 4.11912C1.08886 4.10844 1.08886 4.09777 1.08886 4.0871C1.08886 4.07643 1.09953 4.06576 1.09953 4.06576C1.16356 3.94837 1.24893 3.78829 1.33431 3.58553C1.50506 3.21202 1.70782 2.65708 1.73984 2.07014C2.54022 1.92073 3.10582 1.73931 3.49001 1.56856C3.70344 1.47252 3.85285 1.39782 3.95956 1.33379Z" stroke="#1E1E1E" stroke-width="1.70748"/>
<path d="M3.95956 1.33379C9.58358 0.0425019 13.2867 2.1235 15.6025 4.98353C16.787 6.44556 17.6088 8.11036 18.1103 9.65776C18.6226 11.2158 18.7826 12.5818 18.7079 13.4142C18.5585 15.1537 18.7293 16.3596 19.0281 17.192C17.9929 17.0106 17.2246 17.0106 16.6803 17.0853C16.3922 17.1173 16.1681 17.1814 16.008 17.224C15.9333 17.2454 15.8693 17.2774 15.8159 17.2987C11.2484 18.5047 8.13222 18.2058 6.00854 17.2134C3.88486 16.2209 2.62559 14.4814 1.88924 12.5285C1.14222 10.5649 0.950125 8.41984 0.939453 6.7337C0.939453 5.9013 0.98214 5.19696 1.02483 4.69539C1.04617 4.44994 1.06751 4.25785 1.08886 4.11912C1.08886 4.10844 1.08886 4.09777 1.08886 4.0871C1.08886 4.07643 1.09953 4.06576 1.09953 4.06576C1.16356 3.94837 1.24893 3.78829 1.33431 3.58553C1.50506 3.21202 1.70782 2.65708 1.73984 2.07014C2.54022 1.92073 3.10582 1.73931 3.49001 1.56856C3.70344 1.47252 3.85285 1.39782 3.95956 1.33379Z" stroke="white" stroke-width="0.640306"/>
<path d="M24.5011 30.1478C31.1907 30.1478 36.6136 24.7248 36.6136 18.0353C36.6136 11.3458 31.1907 5.92285 24.5011 5.92285C17.8116 5.92285 12.3887 11.3458 12.3887 18.0353C12.3887 24.7248 17.8116 30.1478 24.5011 30.1478Z" fill="#1E1E1E"/>
<path d="M24.5011 30.1478C31.1907 30.1478 36.6136 24.7248 36.6136 18.0353C36.6136 11.3458 31.1907 5.92285 24.5011 5.92285C17.8116 5.92285 12.3887 11.3458 12.3887 18.0353C12.3887 24.7248 17.8116 30.1478 24.5011 30.1478Z" stroke="#1E1E1E" stroke-width="1.70748"/>
<path d="M24.5011 30.1478C31.1907 30.1478 36.6136 24.7248 36.6136 18.0353C36.6136 11.3458 31.1907 5.92285 24.5011 5.92285C17.8116 5.92285 12.3887 11.3458 12.3887 18.0353C12.3887 24.7248 17.8116 30.1478 24.5011 30.1478Z" stroke="white" stroke-width="0.640306"/>
<path d="M33.6475 17.0642C33.7115 17.2243 33.9463 17.0749 33.9143 16.9148C33.5301 14.9619 31.7799 8.84698 24.7472 7.82249C24.5444 7.79047 24.4697 8.1213 24.6725 8.20667C25.697 8.58018 28.5784 10.0209 30.3179 11.8351C32.1748 13.7987 33.0819 15.6449 33.6475 17.0642Z" fill="white"/>
</g>
<defs>
<clipPath id="clip0_14255_15084">
<rect width="37.5646" height="31.0483" fill="white" transform="translate(0 0.0361328)"/>
</clipPath>
</defs>
</svg>
