<svg width="77" height="22" viewBox="0 0 77 22" fill="none" xmlns="http://www.w3.org/2000/svg">
<path d="M0.0644531 7.26128C0.0644531 3.31247 3.2656 0.111328 7.2144 0.111328H69.7765C73.7253 0.111328 76.9264 3.31247 76.9264 7.26128V14.4112C76.9264 18.36 73.7253 21.5612 69.7765 21.5612H7.21439C3.26558 21.5612 0.0644531 18.36 0.0644531 14.4112V7.26128Z" fill="#1E1E1E"/>
<path d="M14.9415 16.5081C14.2693 16.5081 13.6797 16.4373 13.1726 16.2958C12.6655 16.1425 12.241 15.9362 11.899 15.6767C11.557 15.4173 11.2976 15.1166 11.1207 14.7746C10.9556 14.4208 10.873 14.0376 10.873 13.6248C10.873 13.5659 10.873 13.5128 10.873 13.4656C10.8848 13.4185 10.8907 13.3831 10.8907 13.3595H13.0134C13.0134 13.3831 13.0134 13.4067 13.0134 13.4303C13.0134 13.4538 13.0134 13.4774 13.0134 13.501C13.0252 13.8194 13.1254 14.0788 13.3141 14.2793C13.5028 14.468 13.7504 14.6036 14.057 14.6862C14.3636 14.7687 14.6879 14.81 15.0299 14.81C15.3365 14.81 15.6254 14.7805 15.8967 14.7215C16.1797 14.6508 16.4096 14.5446 16.5865 14.4031C16.7752 14.2498 16.8695 14.0553 16.8695 13.8194C16.8695 13.5128 16.7516 13.2769 16.5158 13.1119C16.2799 12.9468 15.9674 12.8111 15.5783 12.705C15.2009 12.5989 14.7941 12.4868 14.3577 12.3689C13.9686 12.2628 13.5794 12.1449 13.1903 12.0151C12.8011 11.8854 12.4473 11.7203 12.129 11.5199C11.8223 11.3194 11.5688 11.06 11.3683 10.7416C11.1797 10.4232 11.0853 10.0281 11.0853 9.55641C11.0853 9.0965 11.1855 8.69555 11.386 8.35357C11.5865 8.01158 11.8636 7.72856 12.2174 7.5045C12.5712 7.26865 12.9898 7.09177 13.4733 6.97384C13.9568 6.85592 14.4816 6.79695 15.0476 6.79695C15.6019 6.79695 16.103 6.85592 16.5512 6.97384C17.0111 7.09177 17.4061 7.26276 17.7363 7.48682C18.0783 7.69908 18.3377 7.96441 18.5146 8.28281C18.7033 8.58942 18.7976 8.9314 18.7976 9.30876C18.7976 9.39131 18.7917 9.47386 18.7799 9.55641C18.7799 9.63895 18.7799 9.68612 18.7799 9.69792H16.675V9.57409C16.675 9.35004 16.6042 9.16136 16.4627 9.00805C16.333 8.84296 16.1384 8.71324 15.879 8.6189C15.6313 8.52456 15.3188 8.47739 14.9415 8.47739C14.6584 8.47739 14.4108 8.50097 14.1985 8.54814C13.9863 8.59531 13.8094 8.66017 13.6679 8.74272C13.5382 8.82527 13.4379 8.91961 13.3672 9.02574C13.2964 9.13187 13.261 9.2498 13.261 9.37952C13.261 9.60357 13.3495 9.78046 13.5264 9.91018C13.7033 10.0399 13.9391 10.1519 14.2339 10.2463C14.5405 10.3406 14.8707 10.4408 15.2245 10.547C15.649 10.6649 16.0853 10.7887 16.5335 10.9184C16.9816 11.0364 17.3943 11.1897 17.7717 11.3784C18.1608 11.567 18.4733 11.8324 18.7092 12.1743C18.945 12.5163 19.063 12.9703 19.063 13.5364C19.063 14.0788 18.9568 14.5446 18.7446 14.9338C18.5441 15.3112 18.2552 15.6178 17.8778 15.8536C17.5122 16.0777 17.0759 16.2428 16.5688 16.3489C16.0736 16.455 15.5311 16.5081 14.9415 16.5081Z" fill="white"/>
<path d="M24.4053 16.5081C23.8274 16.5081 23.3734 16.3961 23.0432 16.172C22.713 15.9362 22.4772 15.6414 22.3357 15.2876C22.2059 14.922 22.1411 14.5505 22.1411 14.1732V8.76041H21.0267V6.99153H22.1942L22.5833 4.39128H24.2991V6.99153H25.9088V8.76041H24.2991V13.9609C24.2991 14.2086 24.364 14.4031 24.4937 14.5446C24.6234 14.6744 24.818 14.7392 25.0774 14.7392H25.9088V16.2251C25.7909 16.2723 25.6435 16.3135 25.4666 16.3489C25.3015 16.3961 25.1246 16.4314 24.9359 16.455C24.7472 16.4904 24.5703 16.5081 24.4053 16.5081Z" fill="white"/>
<path d="M31.5242 16.5081C30.6279 16.5081 29.8968 16.2664 29.3308 15.7829C28.7765 15.2876 28.4994 14.4503 28.4994 13.2711V6.99153H30.6574V12.8819C30.6574 13.2121 30.6928 13.4892 30.7635 13.7133C30.8461 13.9255 30.9581 14.1024 31.0996 14.2439C31.2529 14.3737 31.4357 14.468 31.648 14.527C31.8603 14.5859 32.0961 14.6154 32.3555 14.6154C32.7447 14.6154 33.0926 14.5211 33.3992 14.3324C33.7176 14.1437 33.9652 13.8843 34.1421 13.5541C34.3308 13.2121 34.4251 12.8288 34.4251 12.4043V6.99153H36.5832V16.2958H34.7966L34.6197 15.0576H34.4959C34.2836 15.3406 34.0301 15.5942 33.7353 15.8182C33.4522 16.0305 33.1221 16.1956 32.7447 16.3135C32.3791 16.4432 31.9723 16.5081 31.5242 16.5081Z" fill="white"/>
<path d="M43.1812 16.5081C42.4265 16.5081 41.772 16.3371 41.2178 15.9951C40.6635 15.6531 40.2331 15.1225 39.9265 14.4031C39.6317 13.6838 39.4843 12.7581 39.4843 11.626C39.4843 10.5057 39.6376 9.59178 39.9442 8.88423C40.2508 8.16489 40.6753 7.63422 41.2178 7.29224C41.7602 6.95026 42.3734 6.77926 43.0574 6.77926C43.4819 6.77926 43.8711 6.82643 44.2249 6.92077C44.5786 7.01511 44.8911 7.16252 45.1624 7.36299C45.4336 7.55167 45.6635 7.78753 45.8522 8.07055H45.9584V3.50684H48.1164V16.2958H46.3298L46.1529 15.0576H46.0291C45.7343 15.5411 45.3334 15.9067 44.8263 16.1543C44.331 16.3902 43.7826 16.5081 43.1812 16.5081ZM43.8534 14.6508C44.3487 14.6508 44.7496 14.5387 45.0562 14.3147C45.3628 14.0906 45.5869 13.7663 45.7284 13.3418C45.8817 12.9173 45.9584 12.3984 45.9584 11.7852V11.5552C45.9584 11.0953 45.9171 10.6826 45.8345 10.317C45.752 9.95146 45.6223 9.64485 45.4454 9.39721C45.2803 9.14956 45.0621 8.96088 44.7909 8.83116C44.5315 8.70145 44.219 8.63659 43.8534 8.63659C43.3227 8.63659 42.8982 8.74272 42.5798 8.95499C42.2732 9.15546 42.0491 9.47386 41.9076 9.91018C41.7779 10.3347 41.7131 10.8772 41.7131 11.5376V11.7852C41.7131 12.4338 41.7779 12.9703 41.9076 13.3949C42.0491 13.8194 42.2732 14.1378 42.5798 14.3501C42.8982 14.5505 43.3227 14.6508 43.8534 14.6508Z" fill="white"/>
<path d="M51.4737 5.55874V3.50684H53.6317V5.55874H51.4737ZM51.4737 16.2958V6.99153H53.6317V16.2958H51.4737Z" fill="white"/>
<path d="M61.1309 16.5081C60.1168 16.5081 59.2677 16.3371 58.5837 15.9951C57.8998 15.6414 57.3868 15.1048 57.0448 14.3854C56.7028 13.6661 56.5318 12.7522 56.5318 11.6437C56.5318 10.5234 56.7028 9.60947 57.0448 8.90192C57.3868 8.18257 57.8998 7.65191 58.5837 7.30993C59.2677 6.95615 60.1168 6.77926 61.1309 6.77926C62.1569 6.77926 63.0059 6.95615 63.6781 7.30993C64.3621 7.65191 64.8751 8.18257 65.217 8.90192C65.559 9.60947 65.73 10.5234 65.73 11.6437C65.73 12.7522 65.559 13.6661 65.217 14.3854C64.8751 15.1048 64.3621 15.6414 63.6781 15.9951C63.0059 16.3371 62.1569 16.5081 61.1309 16.5081ZM61.1309 14.7392C61.697 14.7392 62.151 14.6331 62.493 14.4208C62.8467 14.1968 63.1003 13.8666 63.2536 13.4303C63.4187 12.9821 63.5012 12.4279 63.5012 11.7675V11.5199C63.5012 10.8595 63.4187 10.3111 63.2536 9.8748C63.1003 9.42669 62.8467 9.0965 62.493 8.88423C62.151 8.66017 61.697 8.54814 61.1309 8.54814C60.5649 8.54814 60.105 8.66017 59.7512 8.88423C59.4092 9.0965 59.1557 9.42669 58.9906 9.8748C58.8373 10.3111 58.7606 10.8595 58.7606 11.5199V11.7675C58.7606 12.4279 58.8373 12.9821 58.9906 13.4303C59.1557 13.8666 59.4092 14.1968 59.7512 14.4208C60.105 14.6331 60.5649 14.7392 61.1309 14.7392Z" fill="white"/>
</svg>
