<svg width="26" height="15" viewBox="0 0 26 15" fill="none" xmlns="http://www.w3.org/2000/svg">
<path d="M0.629972 3.64875L11.2637 14.2825C11.466 14.4761 11.7045 14.6279 11.9656 14.7291C12.4834 14.9419 13.0641 14.9419 13.5819 14.7291C13.843 14.6279 14.0815 14.4761 14.2837 14.2825L24.9175 3.64875C25.1158 3.45045 25.2731 3.21504 25.3804 2.95595C25.4877 2.69687 25.543 2.41918 25.543 2.13875C25.543 1.57239 25.318 1.02923 24.9175 0.628754C24.517 0.228278 23.9739 0.00329461 23.4075 0.00329465C22.8412 0.0032947 22.298 0.228279 21.8975 0.628754L14.9005 7.64705C14.9005 7.64705 13.6109 8.87822 12.7737 8.87822C11.9366 8.87822 10.647 7.64705 10.647 7.64705L3.64996 0.628756C3.45225 0.429419 3.21703 0.2712 2.95787 0.163228C2.6987 0.0552551 2.42072 -0.000334149 2.13997 -0.000334124C1.85921 -0.0003341 1.58123 0.0552552 1.32207 0.163228C1.0629 0.2712 0.827682 0.429419 0.629972 0.628756C0.430635 0.826466 0.272413 1.06169 0.164441 1.32085C0.0564684 1.58002 0.000881963 1.85799 0.000881988 2.13875C0.000882012 2.41951 0.0564685 2.69749 0.164441 2.95665C0.272414 3.21582 0.430635 3.45104 0.629972 3.64875Z" fill="#00244B"/>
</svg>
