<svg width="32" height="32" viewBox="0 0 32 32" fill="none" xmlns="http://www.w3.org/2000/svg">
<path d="M0 6.4C0 4.15979 0 3.03968 0.435974 2.18404C0.819467 1.43139 1.43139 0.819467 2.18404 0.435974C3.03968 0 4.15979 0 6.4 0H25.6C27.8402 0 28.9603 0 29.816 0.435974C30.5686 0.819467 31.1805 1.43139 31.564 2.18404C32 3.03968 32 4.15979 32 6.4V25.6C32 27.8402 32 28.9603 31.564 29.816C31.1805 30.5686 30.5686 31.1805 29.816 31.564C28.9603 32 27.8402 32 25.6 32H6.4C4.15979 32 3.03968 32 2.18404 31.564C1.43139 31.1805 0.819467 30.5686 0.435974 29.816C0 28.9603 0 27.8402 0 25.6V6.4Z" fill="#ECECEC"/>
<path d="M7.94212 12.9725L15.0313 20.0617C15.1661 20.1908 15.3251 20.292 15.4992 20.3595C15.8444 20.5013 16.2316 20.5013 16.5767 20.3595C16.7508 20.292 16.9098 20.1908 17.0446 20.0617L24.1338 12.9725C24.266 12.8403 24.3709 12.6834 24.4424 12.5107C24.514 12.338 24.5508 12.1528 24.5508 11.9659C24.5508 11.5883 24.4008 11.2262 24.1338 10.9592C23.8668 10.6922 23.5047 10.5422 23.1271 10.5422C22.7496 10.5422 22.3875 10.6922 22.1205 10.9592L17.4558 15.6381C17.4558 15.6381 16.5961 16.4589 16.038 16.4589C15.4799 16.4589 14.6201 15.6381 14.6201 15.6381L9.95544 10.9592C9.82364 10.8263 9.66682 10.7208 9.49405 10.6489C9.32127 10.5769 9.13595 10.5398 8.94878 10.5398C8.76161 10.5398 8.57629 10.5769 8.40351 10.6489C8.23074 10.7208 8.07392 10.8263 7.94212 10.9592C7.80923 11.091 7.70374 11.2478 7.63176 11.4206C7.55978 11.5934 7.52272 11.7787 7.52272 11.9659C7.52272 12.153 7.55978 12.3384 7.63176 12.5111C7.70374 12.6839 7.80923 12.8407 7.94212 12.9725Z" fill="#6B6B6B"/>
</svg>
