<svg width="187" height="193" viewBox="0 0 187 193" fill="none" xmlns="http://www.w3.org/2000/svg">
<g filter="url(#filter0_d_14535_15764)">
<path d="M17.3841 37.6914C17.3841 37.6914 40.7119 30.0738 56.0697 26.8787C93.9865 18.9905 155.169 23.1124 155.169 23.1124L169.845 161.816C169.845 161.816 121.397 164.664 83.1801 168.303C64.4999 170.082 32.0603 176.395 32.0603 176.395L17.3841 37.6914Z" fill="url(#paint0_linear_14535_15764)"/>
<path d="M17.3841 37.6914C17.3841 37.6914 40.7119 30.0738 56.0697 26.8787C93.9865 18.9905 155.169 23.1124 155.169 23.1124L169.845 161.816C169.845 161.816 121.397 164.664 83.1801 168.303C64.4999 170.082 32.0603 176.395 32.0603 176.395L17.3841 37.6914Z" fill="#F5F5F5" fill-opacity="0.19" style="mix-blend-mode:lighten"/>
</g>
<path d="M85.5537 108.297L85.6943 119.141" stroke="#1C1C1C" stroke-width="2" stroke-linecap="round"/>
<path d="M86.2919 122.592C85.8622 122.873 85.4324 123.153 85.2649 123.404C85.0974 123.654 85.2052 123.865 85.3624 123.952C85.5197 124.04 85.7232 123.997 85.7338 123.931C85.7445 123.865 85.5563 123.777 85.1645 123.664" stroke="#1C1C1C" stroke-width="2" stroke-linecap="round"/>
<path d="M84.1072 103.499C82.2719 110.167 80.4365 116.835 79.5138 120.074C78.5911 123.314 78.6367 122.922 78.7081 122.593C78.7794 122.265 78.8751 122.011 78.9737 121.75" stroke="#1C1C1C" stroke-width="2" stroke-linecap="round"/>
<path d="M86.1553 103.148C87.9245 108.979 89.6937 114.81 90.6552 117.952C91.6167 121.093 91.7169 121.37 91.8512 121.654C91.9855 121.938 92.151 122.222 92.2984 122.713" stroke="#1C1C1C" stroke-width="2" stroke-linecap="round"/>
<path d="M79.5163 127.434L91.709 126.047" stroke="#1C1C1C" stroke-width="2" stroke-linecap="round"/>
<path d="M31.3262 58.8774C31.1935 58.8873 31.0758 58.848 30.9732 58.7595C30.8758 58.6707 30.8204 58.536 30.807 58.3555C30.8011 58.2758 30.802 58.145 30.8098 57.9629C30.8226 57.7751 30.8386 57.5604 30.858 57.3187C30.8827 57.0767 30.904 56.8242 30.9218 56.5613C30.945 56.298 30.9611 56.0486 30.9703 55.813C30.9848 55.577 30.9912 55.3764 30.9896 55.211C30.9852 55.0085 31.0277 54.8612 31.1169 54.7691C31.2058 54.6718 31.3165 54.6182 31.4493 54.6083C31.5554 54.6004 31.653 54.6198 31.7419 54.6666C31.8357 54.7077 31.8991 54.8071 31.9322 54.9648C31.9702 55.1167 31.9894 55.3395 31.9899 55.6331C32.1919 55.191 32.3999 54.7939 32.614 54.4416C32.8333 54.089 33.0684 53.8046 33.3193 53.5885C33.735 53.2212 34.1208 53.0244 34.4765 52.998C34.6782 52.983 34.8143 53.0182 34.8847 53.1037C34.9551 53.1892 34.9939 53.2798 35.001 53.3753C35.0057 53.439 34.9941 53.4986 34.9662 53.5541C34.9436 53.6092 34.8894 53.6692 34.8035 53.7343C34.7176 53.7995 34.5853 53.8867 34.4065 53.9961C34.1665 54.142 33.9321 54.3276 33.7032 54.5528C33.4797 54.7776 33.2606 55.0608 33.0457 55.4025C32.8309 55.7441 32.619 56.1602 32.4099 56.6508C32.2008 57.1415 31.9904 57.723 31.7789 58.3953C31.7445 58.5794 31.6844 58.704 31.5985 58.7691C31.5178 58.8338 31.4271 58.8699 31.3262 58.8774ZM35.916 58.4561C35.5869 58.4806 35.3129 58.3862 35.0942 58.1729C34.8751 57.9543 34.7464 57.5875 34.7081 57.0725C34.6837 56.7434 34.6964 56.4115 34.7462 56.0768C34.801 55.7364 34.8863 55.4124 35.0023 55.1049C35.1231 54.7916 35.2678 54.5112 35.4362 54.2638C35.61 54.016 35.806 53.8173 36.0245 53.6676C36.2425 53.5126 36.4736 53.426 36.7178 53.4079C37.1319 53.3771 37.464 53.4645 37.7142 53.6701C37.9644 53.8757 38.1023 54.151 38.128 54.4961C38.1477 54.7616 38.0913 55.0087 37.9589 55.2374C37.8313 55.4604 37.6491 55.6661 37.4122 55.8546C37.1753 56.043 36.908 56.2177 36.6104 56.3786C36.3127 56.5395 36.0061 56.6878 35.6905 56.8233C35.6782 57.0164 35.6776 57.1873 35.6886 57.3359C35.6953 57.4262 35.7491 57.4676 35.85 57.4601C36.0889 57.4423 36.341 57.3862 36.6062 57.2918C36.8763 57.1916 37.1476 57.07 37.4198 56.927C37.6918 56.7786 37.9528 56.6284 38.2031 56.4764C38.453 56.319 38.6796 56.1714 38.8828 56.0335C39.091 55.8899 39.2614 55.7758 39.3939 55.6912C39.5313 55.6009 39.6213 55.5542 39.6637 55.551C39.7805 55.5424 39.868 55.5705 39.9263 55.6356C39.9845 55.7007 40.0166 55.773 40.0225 55.8527C40.0252 55.8898 39.9597 55.9774 39.8258 56.1155C39.6973 56.2532 39.5174 56.4187 39.2862 56.6121C39.0599 56.7997 38.8024 56.9977 38.5136 57.206C38.2297 57.4086 37.932 57.6042 37.6204 57.7929C37.3137 57.9758 37.0126 58.1263 36.717 58.2444C36.4272 58.3674 36.1602 58.4379 35.916 58.4561ZM35.7732 56.1045C35.9814 55.9609 36.1866 55.8122 36.3887 55.6584C36.5957 55.4989 36.7643 55.3262 36.8947 55.1403C37.0246 54.9492 37.0807 54.7341 37.0629 54.4952C37.0578 54.4262 37.0358 54.3825 36.9971 54.364C36.958 54.3402 36.9039 54.3309 36.8349 54.336C36.649 54.3498 36.4853 54.4448 36.3436 54.6208C36.2071 54.7964 36.0902 55.0186 35.9927 55.2875C35.9002 55.5506 35.827 55.8229 35.7732 56.1045ZM42.6346 53.4004C42.8749 52.6832 43.0791 51.9473 43.2472 51.1928C43.2786 51.041 43.3312 50.9223 43.4049 50.8368C43.4839 50.7508 43.5977 50.7023 43.7464 50.6913C43.8685 50.6822 43.9642 50.7125 44.0334 50.782C44.1022 50.8463 44.1412 50.9395 44.1503 51.0616C44.1578 51.1625 44.1287 51.3462 44.0631 51.6126C43.9971 51.8738 43.9177 52.2053 43.8248 52.6072C43.7319 53.0092 43.6435 53.4722 43.5597 53.9962C43.4759 54.5203 43.4144 55.0934 43.3752 55.7155C43.3361 56.3377 43.3425 56.9991 43.3946 57.6999C43.4088 57.891 43.3833 58.0504 43.3181 58.178C43.2585 58.3106 43.1412 58.3834 42.966 58.3964C42.7748 58.4106 42.6292 58.3547 42.5291 58.2287C42.4343 58.1023 42.3792 57.9356 42.3638 57.7285C42.3334 57.3197 42.3214 56.979 42.3278 56.7062C42.3392 56.4278 42.3534 56.1892 42.3707 55.9904C42.1437 56.4557 41.8963 56.8611 41.6283 57.2066C41.3653 57.5465 41.1074 57.8112 40.8546 58.0009C40.6022 58.1958 40.3804 58.3004 40.1893 58.3146C39.8761 58.3379 39.6147 58.2692 39.4053 58.1086C39.1958 57.948 39.0779 57.6899 39.0514 57.3342C39.0309 57.0581 39.0761 56.7691 39.1872 56.4673C39.2978 56.1601 39.4513 55.8551 39.6476 55.5522C39.844 55.2494 40.0629 54.9635 40.3045 54.6946C40.551 54.4201 40.7999 54.1774 41.0511 53.9665C41.302 53.7503 41.5374 53.578 41.7574 53.4496C41.9774 53.3211 42.1591 53.2516 42.3024 53.2409C42.4617 53.2291 42.5724 53.2822 42.6346 53.4004ZM42.4834 53.844C42.4531 53.8676 42.4202 53.8914 42.3846 53.9154C42.3539 53.9337 42.3234 53.9547 42.2932 53.9783C42.1009 54.1207 41.8973 54.2906 41.6825 54.4881C41.4672 54.6803 41.2562 54.8935 41.0494 55.1277C40.8422 55.3567 40.6544 55.5948 40.4859 55.8422C40.3224 56.0839 40.1934 56.3231 40.0989 56.5597C40.0093 56.7905 39.9722 57.0095 39.9876 57.2165C39.9903 57.2537 40.0082 57.2791 40.0413 57.2926C40.0743 57.3062 40.1041 57.312 40.1306 57.31C40.3164 57.2962 40.5094 57.1991 40.7095 57.0187C40.915 56.838 41.1183 56.5933 41.3196 56.2847C41.5258 55.9705 41.7255 55.6059 41.9189 55.1912C42.1176 54.7761 42.3058 54.327 42.4834 53.844ZM47.9463 57.6498C47.8242 57.6589 47.709 57.6167 47.6006 57.5234C47.4979 57.4349 47.4381 57.2765 47.4211 57.0482C47.4085 56.8784 47.4042 56.6411 47.4083 56.3365C47.4172 56.0262 47.4462 55.6264 47.4953 55.137C47.3379 55.533 47.1693 55.8872 46.9897 56.1995C46.8101 56.5118 46.6283 56.7602 46.4445 56.9447C46.2657 57.1235 46.0886 57.2194 45.9134 57.2324C45.6321 57.2533 45.4028 57.1849 45.2256 57.0273C45.0479 56.8643 44.9414 56.544 44.9059 56.0662C44.8889 55.8379 44.8883 55.579 44.9042 55.2896C44.9253 54.9997 44.9571 54.7091 44.9995 54.4177C45.0419 54.1262 45.0867 53.8667 45.1338 53.639C45.1858 53.4055 45.2343 53.2311 45.2791 53.1157C45.3144 53.017 45.362 52.9387 45.4218 52.8809C45.4868 52.8227 45.5724 52.7896 45.6786 52.7817C45.8485 52.7691 45.9827 52.8151 46.0813 52.9199C46.1798 53.0247 46.2334 53.1355 46.2421 53.2523C46.2488 53.3425 46.2372 53.4742 46.2074 53.6472C46.1829 53.8199 46.1491 54.0119 46.1061 54.2233C46.0684 54.4343 46.0284 54.6508 45.9862 54.8728C45.944 55.0948 45.9088 55.3029 45.8805 55.4972C45.8576 55.6911 45.851 55.8544 45.8609 55.9871C45.8731 56.1517 45.9429 56.2293 46.0704 56.2198C46.1447 56.2143 46.2349 56.1355 46.3411 55.9835C46.4525 55.8311 46.5657 55.6305 46.6807 55.3817C46.8006 55.1272 46.9188 54.8515 47.0356 54.5546C47.1572 54.2519 47.2654 53.9476 47.3601 53.6416C47.4597 53.3299 47.5425 53.0435 47.6085 52.7824C47.6497 52.6191 47.7131 52.5023 47.7986 52.4319C47.8841 52.3615 47.9853 52.3219 48.1021 52.3133C48.2826 52.2998 48.4244 52.34 48.5274 52.4338C48.6358 52.5272 48.6969 52.6667 48.7107 52.8526C48.717 52.9375 48.7144 53.0818 48.7029 53.2855C48.6913 53.4893 48.6744 53.7281 48.652 54.002C48.635 54.2755 48.6112 54.5655 48.5806 54.8721C48.55 55.1787 48.519 55.4799 48.4876 55.7758C48.4616 56.0714 48.4337 56.343 48.4041 56.5908C48.3741 56.8333 48.3485 57.0273 48.3273 57.1731C48.29 57.3894 48.2357 57.5215 48.1646 57.5695C48.0934 57.6175 48.0206 57.6443 47.9463 57.6498ZM51.3507 57.2606C51.0534 57.2827 50.7908 57.2328 50.5628 57.1109C50.3353 56.9944 50.1553 56.8343 50.0227 56.6306C49.8897 56.4216 49.8147 56.203 49.7977 55.9747C49.7693 55.5925 49.8015 55.2351 49.8942 54.9026C49.9865 54.5647 50.1184 54.256 50.2898 53.9763C50.4608 53.6913 50.65 53.4371 50.8576 53.2134C51.0705 52.9894 51.278 52.8005 51.4801 52.6467C51.6871 52.4871 51.873 52.3666 52.0378 52.2849C52.2021 52.198 52.3241 52.1515 52.4038 52.1456C52.5471 52.1349 52.6503 52.1593 52.7135 52.2187C52.7815 52.2723 52.8207 52.3682 52.8309 52.5062C52.8369 52.5858 52.7856 52.6857 52.6771 52.8059C52.5739 52.9257 52.4347 53.0642 52.2595 53.2213C52.0897 53.3781 51.9106 53.5542 51.7223 53.7497C51.5339 53.9452 51.3552 54.1614 51.1859 54.3981C51.022 54.6345 50.8915 54.8898 50.7944 55.1639C50.7027 55.4377 50.6685 55.7312 50.6917 56.0444C50.7004 56.1612 50.7284 56.2498 50.7756 56.3104C50.8281 56.3706 50.9074 56.3967 51.0136 56.3888C51.3162 56.3663 51.6361 56.2891 51.9733 56.1573C52.3154 56.0198 52.6529 55.8559 52.9857 55.6656C53.3235 55.4697 53.6396 55.27 53.9341 55.0666C54.2339 54.8628 54.49 54.681 54.7023 54.5211C54.7878 54.4507 54.8611 54.3945 54.922 54.3526C54.983 54.3107 55.0267 54.2888 55.0533 54.2868C55.2125 54.275 55.2983 54.3513 55.3105 54.5159C55.3168 54.6008 55.2616 54.7197 55.1448 54.8725C55.01 55.0694 54.8225 55.2755 54.5823 55.4909C54.3473 55.7059 54.0826 55.9151 53.7881 56.1185C53.4989 56.3215 53.2004 56.5065 52.8925 56.6735C52.5899 56.8401 52.3038 56.9762 52.034 57.0816C51.7643 57.1871 51.5365 57.2468 51.3507 57.2606ZM55.8482 56.9742C55.5191 56.9987 55.2451 56.9043 55.0264 56.691C54.8073 56.4724 54.6786 56.1056 54.6403 55.5907C54.6159 55.2615 54.6286 54.9296 54.6784 54.5949C54.7332 54.2545 54.8185 53.9306 54.9345 53.623C55.0553 53.3097 55.2 53.0294 55.3684 52.782C55.5422 52.5342 55.7382 52.3354 55.9567 52.1857C56.1747 52.0307 56.4058 51.9442 56.65 51.926C57.0641 51.8952 57.3962 51.9826 57.6464 52.1882C57.8966 52.3938 58.0345 52.6692 58.0602 53.0143C58.0799 53.2797 58.0235 53.5268 57.8911 53.7555C57.7635 53.9785 57.5813 54.1843 57.3444 54.3727C57.1075 54.5611 56.8402 54.7358 56.5426 54.8967C56.2449 55.0577 55.9383 55.2059 55.6227 55.3415C55.6104 55.5346 55.6098 55.7054 55.6208 55.8541C55.6275 55.9443 55.6813 55.9857 55.7822 55.9782C56.0211 55.9605 56.2732 55.9044 56.5384 55.8099C56.8085 55.7097 57.0798 55.5881 57.3521 55.4451C57.624 55.2968 57.885 55.1466 58.1353 54.9945C58.3852 54.8372 58.6118 54.6895 58.815 54.5516C59.0232 54.408 59.1936 54.2939 59.3261 54.2094C59.4635 54.1191 59.5535 54.0723 59.5959 54.0692C59.7127 54.0605 59.8002 54.0887 59.8585 54.1538C59.9167 54.2188 59.9488 54.2912 59.9547 54.3708C59.9574 54.408 59.8919 54.4956 59.758 54.6337C59.6295 54.7713 59.4496 54.9369 59.2184 55.1302C58.9921 55.3179 58.7346 55.5158 58.4458 55.7241C58.1619 55.9268 57.8642 56.1224 57.5526 56.311C57.2459 56.494 56.9448 56.6445 56.6493 56.7625C56.3594 56.8855 56.0924 56.9561 55.8482 56.9742ZM55.7054 54.6227C55.9136 54.4791 56.1188 54.3304 56.3209 54.1765C56.5279 54.017 56.6965 53.8443 56.8269 53.6585C56.9568 53.4673 57.0129 53.2523 56.9951 53.0134C56.99 52.9444 56.968 52.9006 56.9293 52.8821C56.8902 52.8584 56.8361 52.849 56.7671 52.8542C56.5812 52.868 56.4175 52.9629 56.2758 53.1389C56.1393 53.3146 56.0224 53.5368 55.9249 53.8056C55.8324 54.0687 55.7592 54.3411 55.7054 54.6227ZM66.1111 51.655C66.3514 50.9378 66.5556 50.202 66.7237 49.4475C66.7551 49.2957 66.8077 49.177 66.8814 49.0914C66.9604 49.0055 67.0743 48.957 67.2229 48.9459C67.345 48.9368 67.4407 48.9671 67.5099 49.0367C67.5788 49.101 67.6177 49.1942 67.6268 49.3163C67.6343 49.4171 67.6053 49.6008 67.5397 49.8672C67.4737 50.1284 67.3942 50.4599 67.3013 50.8619C67.2084 51.2638 67.1201 51.7268 67.0362 52.2509C66.9524 52.7749 66.8909 53.348 66.8518 53.9702C66.8126 54.5923 66.8191 55.2538 66.8712 55.9546C66.8854 56.1457 66.8599 56.3051 66.7946 56.4327C66.7351 56.5652 66.6177 56.638 66.4425 56.651C66.2514 56.6653 66.1058 56.6094 66.0056 56.4833C65.9108 56.3569 65.8557 56.1902 65.8403 55.9832C65.8099 55.5744 65.798 55.2336 65.8044 54.9609C65.8157 54.6824 65.83 54.4438 65.8472 54.245C65.6203 54.7103 65.3728 55.1157 65.1049 55.4613C64.8419 55.8011 64.584 56.0659 64.3312 56.2555C64.0787 56.4504 63.857 56.555 63.6658 56.5692C63.3526 56.5925 63.0913 56.5238 62.8818 56.3632C62.6724 56.2027 62.5544 55.9445 62.528 55.5888C62.5074 55.3127 62.5527 55.0238 62.6637 54.7219C62.7743 54.4148 62.9278 54.1097 63.1242 53.8069C63.3205 53.504 63.5395 53.2181 63.7811 52.9493C64.0276 52.6747 64.2765 52.432 64.5277 52.2212C64.7785 52.005 65.014 51.8327 65.234 51.7042C65.4539 51.5758 65.6356 51.5062 65.779 51.4955C65.9382 51.4837 66.0489 51.5369 66.1111 51.655ZM65.9599 52.0987C65.9297 52.1223 65.8967 52.1461 65.8611 52.1701C65.8305 52.1884 65.8 52.2093 65.7697 52.2329C65.5775 52.3753 65.3739 52.5453 65.159 52.7427C64.9438 52.9349 64.7327 53.1481 64.5259 53.3824C64.3188 53.6113 64.1309 53.8495 63.9625 54.0969C63.799 54.3386 63.6699 54.5777 63.5754 54.8143C63.4858 55.0452 63.4487 55.2641 63.4641 55.4712C63.4669 55.5083 63.4848 55.5337 63.5178 55.5473C63.5508 55.5608 63.5806 55.5666 63.6072 55.5646C63.793 55.5508 63.986 55.4537 64.1861 55.2734C64.3915 55.0926 64.5949 54.8479 64.7961 54.5394C65.0023 54.2251 65.2021 53.8606 65.3955 53.4458C65.5941 53.0307 65.7823 52.5816 65.9599 52.0987ZM68.7021 56.0987C68.5694 56.1086 68.4517 56.0693 68.349 55.9808C68.2516 55.892 68.1963 55.7573 68.1828 55.5768C68.1769 55.4971 68.1779 55.3663 68.1857 55.1842C68.1984 54.9964 68.2145 54.7817 68.2339 54.54C68.2586 54.298 68.2798 54.0455 68.2977 53.7826C68.3208 53.5193 68.337 53.2699 68.3461 53.0343C68.3606 52.7983 68.3671 52.5977 68.3654 52.4323C68.3611 52.2298 68.4035 52.0825 68.4927 51.9904C68.5816 51.8931 68.6924 51.8395 68.8251 51.8296C68.9313 51.8217 69.0288 51.8411 69.1177 51.8879C69.2115 51.929 69.275 52.0284 69.308 52.1861C69.346 52.338 69.3653 52.5608 69.3657 52.8544C69.5677 52.4123 69.7758 52.0152 69.9898 51.6629C70.2092 51.3103 70.4442 51.0259 70.6951 50.8098C71.1109 50.4425 71.4966 50.2457 71.8523 50.2193C72.054 50.2043 72.1901 50.2395 72.2605 50.325C72.331 50.4105 72.3697 50.5011 72.3768 50.5966C72.3816 50.6604 72.37 50.7199 72.3421 50.7754C72.3195 50.8305 72.2652 50.8905 72.1793 50.9556C72.0934 51.0208 71.9611 51.108 71.7824 51.2174C71.5423 51.3633 71.3079 51.5489 71.0791 51.7741C70.8556 51.9989 70.6364 52.2821 70.4216 52.6238C70.2067 52.9654 69.9948 53.3815 69.7857 53.8721C69.5766 54.3628 69.3663 54.9443 69.1547 55.6166C69.1203 55.8007 69.0602 55.9253 68.9743 55.9904C68.8937 56.0551 68.8029 56.0912 68.7021 56.0987ZM73.4827 55.6552C73.1058 55.6832 72.7933 55.573 72.5453 55.3245C72.2969 55.0707 72.1559 54.7182 72.1223 54.267C72.1117 54.1236 72.1194 53.9762 72.1455 53.8248C72.1769 53.673 72.2171 53.5312 72.266 53.3995C72.2306 53.3541 72.1995 53.295 72.1728 53.2222C72.1509 53.1438 72.1361 53.0515 72.1282 52.9453C72.1025 52.6002 72.1401 52.2798 72.2409 51.984C72.3413 51.683 72.4871 51.4186 72.6784 51.1908C72.8696 50.963 73.0857 50.7815 73.3265 50.6462C73.5673 50.5108 73.8152 50.4337 74.07 50.4147C74.5053 50.3823 74.8719 50.5019 75.1697 50.7734C75.4727 51.0444 75.6472 51.4879 75.693 52.1037C75.7159 52.4117 75.6914 52.7284 75.6195 53.0541C75.5476 53.3797 75.4402 53.6947 75.2974 53.9989C75.1594 54.2974 74.9927 54.5687 74.7974 54.8128C74.6073 55.0565 74.3977 55.2535 74.1687 55.404C73.945 55.5541 73.7163 55.6378 73.4827 55.6552ZM73.1552 52.973C73.1861 53.0295 73.2045 53.0975 73.2104 53.1771C73.2163 53.2568 73.2065 53.3402 73.181 53.4275C73.1554 53.5149 73.1321 53.6314 73.1109 53.7771C73.0893 53.9175 73.0881 54.1177 73.1075 54.3779C73.1126 54.4469 73.1249 54.5047 73.1444 54.5513C73.1688 54.5922 73.2155 54.6101 73.2845 54.6049C73.465 54.5915 73.6306 54.5205 73.7811 54.3919C73.937 54.2628 74.0716 54.098 74.1848 53.8974C74.3033 53.6964 74.399 53.4758 74.4719 53.2355C74.5497 52.9895 74.6034 52.7426 74.633 52.4948C74.6676 52.2414 74.6769 52.0084 74.6612 51.7961C74.6509 51.6581 74.6172 51.5645 74.5602 51.5153C74.5032 51.4662 74.4083 51.4465 74.2756 51.4564C74.0951 51.4698 73.9136 51.542 73.7312 51.673C73.5536 51.7984 73.4085 51.964 73.2957 52.1699C73.1824 52.3705 73.1349 52.5929 73.1531 52.8371C73.1566 52.8848 73.1573 52.9302 73.1552 52.973ZM77.0111 57.699C76.8625 57.7101 76.7417 57.6657 76.6489 57.5658C76.5617 57.4709 76.5103 57.3172 76.4945 57.1048C76.4728 56.8129 76.4735 56.4631 76.4966 56.0557C76.5197 55.6483 76.5596 55.2156 76.6163 54.7576C76.673 54.2997 76.7382 53.8491 76.812 53.4058C76.9023 52.8973 76.9934 52.4341 77.0851 52.0163C77.1821 51.598 77.2852 51.262 77.3945 51.0083C77.5087 50.7489 77.6321 50.6143 77.7648 50.6045C77.887 50.5954 77.9965 50.6326 78.0934 50.7161C78.1953 50.794 78.2526 50.9178 78.2652 51.0877C78.2743 51.2098 78.2555 51.3874 78.2087 51.6204C78.1616 51.8481 78.1027 52.1328 78.032 52.4743C78.1904 52.1636 78.3545 51.8578 78.5243 51.5569C78.6994 51.2556 78.8792 50.9807 79.0635 50.7321C79.2479 50.4835 79.4305 50.2831 79.6114 50.1309C79.7922 49.9786 79.9676 49.8962 80.1375 49.8836C80.3392 49.8686 80.5214 49.9137 80.6841 50.0191C80.852 50.124 80.9886 50.274 81.0939 50.4691C81.1991 50.6641 81.2612 50.889 81.2802 51.1438C81.3153 51.6163 81.2645 52.0819 81.1278 52.5405C80.9906 52.9937 80.7838 53.4068 80.5072 53.7797C80.236 54.1522 79.909 54.4568 79.5262 54.6934C79.143 54.9248 78.7205 55.0576 78.2586 55.0919C78.1259 55.1018 78.0028 55.0976 77.8893 55.0794C77.7816 55.066 77.6814 55.0468 77.5888 55.0216C77.5503 55.3661 77.5151 55.7184 77.4832 56.0785C77.4569 56.4434 77.4294 56.8271 77.4006 57.2297C77.3586 57.5264 77.2288 57.6828 77.0111 57.699ZM80.287 50.8173C80.1702 50.826 80.0275 50.9167 79.8588 51.0894C79.6955 51.2617 79.5199 51.4856 79.3322 51.7611C79.1441 52.0313 78.9551 52.3256 78.7653 52.644C78.5803 52.9567 78.4029 53.2635 78.2331 53.5644C78.0686 53.8649 77.9279 54.1263 77.811 54.3485C78.2113 54.276 78.5591 54.1434 78.8544 53.9506C79.1493 53.7525 79.3963 53.5207 79.5954 53.2549C79.7945 52.9892 79.9502 52.7134 80.0624 52.4275C80.1795 52.1359 80.26 51.8549 80.304 51.5848C80.348 51.3146 80.3627 51.0813 80.3481 50.8848C80.3445 50.8371 80.3242 50.8146 80.287 50.8173ZM87.3895 54.6133C87.1878 54.6283 86.9927 54.5894 86.8043 54.4967C86.6216 54.4088 86.4659 54.2522 86.337 54.0269C86.2131 53.7959 86.1363 53.4813 86.1067 53.0832C86.0917 52.8814 86.0857 52.6924 86.0886 52.516C86.0915 52.3396 86.1009 52.1788 86.1167 52.0334C86.0229 51.8482 85.9671 51.6362 85.9493 51.3973C85.9296 51.1318 85.9639 50.8757 86.0524 50.6289C86.1457 50.3764 86.281 50.1502 86.4583 49.9501C86.6409 49.7497 86.8557 49.5869 87.1027 49.4618C87.3545 49.331 87.6291 49.2545 87.9264 49.2324C88.2874 49.2056 88.5993 49.3078 88.862 49.5392C89.1248 49.7706 89.2747 50.1358 89.3118 50.6348C89.3272 50.8419 89.3271 51.0554 89.3114 51.2754C89.2953 51.4902 89.266 51.7059 89.2234 51.9226C89.5004 51.8433 89.7618 51.7331 90.0076 51.592C90.2586 51.4506 90.4895 51.2893 90.7003 51.1081C90.643 50.9843 90.569 50.8857 90.4781 50.8124C90.3868 50.7337 90.2716 50.6916 90.1324 50.6859C89.9127 50.6756 89.7944 50.5562 89.7775 50.3279C89.7684 50.2058 89.7988 50.1128 89.8688 50.0489C89.9441 49.9846 90.0455 49.9477 90.1729 49.9382C90.3215 49.9272 90.492 49.9225 90.6843 49.9242C90.8819 49.9255 91.1218 49.9211 91.404 49.9108C91.5329 49.4901 91.7011 49.0959 91.9086 48.7282C92.1211 48.3547 92.3528 48.0252 92.6038 47.7396C92.8545 47.4487 93.107 47.2191 93.3614 47.0507C93.6207 46.8766 93.8645 46.7811 94.0928 46.7641C94.2467 46.7527 94.3739 46.7752 94.4742 46.8319C94.5798 46.8881 94.6377 46.9852 94.648 47.1232C94.6578 47.2559 94.6231 47.3626 94.5436 47.4433C94.4691 47.5182 94.3644 47.582 94.2296 47.6348L94.2216 47.6354C93.7802 47.8016 93.3966 48.0624 93.0706 48.4176C92.7443 48.7675 92.4967 49.2423 92.3277 49.8421C92.8681 49.7859 93.3348 49.7085 93.7278 49.6099C94.1204 49.5059 94.4392 49.4128 94.6839 49.3306C94.9336 49.2426 95.1036 49.1953 95.1939 49.1886C95.3001 49.1807 95.3821 49.2066 95.4399 49.2664C95.503 49.3257 95.5385 49.4085 95.5464 49.5147C95.5559 49.6421 95.4383 49.7843 95.1938 49.9413C94.9492 50.0983 94.5916 50.2423 94.1209 50.3734C93.6498 50.4992 93.0771 50.5871 92.4029 50.6372C92.3286 50.6428 92.2514 50.6458 92.1713 50.6464C92.1717 50.6517 92.1721 50.6571 92.1725 50.6624C92.1433 50.9154 92.1074 51.2224 92.0648 51.5832C92.0219 51.9387 91.9778 52.3157 91.9327 52.7141C91.8872 53.1072 91.8433 53.4868 91.8012 53.8529C91.7643 54.2187 91.7298 54.5442 91.6976 54.8295C91.6707 55.1144 91.6514 55.3214 91.6397 55.4504C91.6246 55.6063 91.5692 55.7225 91.4734 55.7991C91.3781 55.8809 91.28 55.9256 91.1791 55.9331C91.0676 55.9413 90.9611 55.9092 90.8596 55.8367C90.7586 55.7695 90.7015 55.6483 90.6885 55.4731C90.6845 55.42 90.6922 55.3073 90.7114 55.135C90.7306 54.9628 90.7524 54.753 90.7767 54.5056C90.8067 54.2632 90.8327 54.0023 90.8546 53.7231C90.8762 53.4386 90.8924 53.1544 90.9034 52.8707C90.9139 52.5816 90.9099 52.3123 90.8914 52.0628C90.8858 51.9885 90.8807 51.9195 90.876 51.8558C90.358 52.284 89.7386 52.5702 89.018 52.7146C88.8992 53.0544 88.7542 53.3668 88.5832 53.6517C88.4118 53.9314 88.223 54.1563 88.0168 54.3264C87.8163 54.5015 87.6072 54.5971 87.3895 54.6133ZM87.0673 51.7866C87.2034 51.8939 87.3769 51.9664 87.5879 52.0041C87.7989 52.0418 88.0085 52.0609 88.2168 52.0615C88.2529 51.8292 88.2782 51.5952 88.2927 51.3592C88.3068 51.1179 88.3063 50.8964 88.2913 50.6947C88.2834 50.5885 88.2475 50.5004 88.1836 50.4304C88.125 50.3601 88.0346 50.3294 87.9125 50.3385C87.7002 50.3543 87.505 50.4222 87.3271 50.5422C87.1492 50.6621 87.0186 50.808 86.9352 50.9797C86.9801 51.0084 87.0181 51.0536 87.0494 51.1153C87.0807 51.177 87.1007 51.2663 87.1094 51.3831C87.1113 51.4096 87.1069 51.458 87.0961 51.5282C87.0906 51.598 87.081 51.6842 87.0673 51.7866ZM88.025 52.8204C87.8543 52.8224 87.6804 52.8167 87.5032 52.8032C87.3256 52.7843 87.1549 52.749 86.9909 52.6971C86.9864 52.8523 86.9885 52.9882 86.9972 53.105C86.9976 53.1103 86.9985 53.1236 87.0001 53.1449C87.0041 53.1979 87.0139 53.2586 87.0297 53.3268C87.0454 53.3951 87.0845 53.4535 87.1468 53.5023C87.2088 53.5457 87.3087 53.5623 87.4468 53.5521C87.5636 53.5434 87.6703 53.4714 87.767 53.3361C87.869 53.2004 87.955 53.0285 88.025 52.8204ZM94.7542 54.7064C94.6215 54.7162 94.5044 54.6849 94.4029 54.6124C94.3018 54.5452 94.2479 54.3944 94.2411 54.16C94.2324 53.899 94.2308 53.6269 94.2365 53.3436C94.2421 53.0602 94.2518 52.7952 94.2655 52.5487C94.2946 52.0073 94.2798 51.592 94.2209 51.3028C94.1669 51.0079 94.0688 50.8016 93.9267 50.6841C93.7898 50.5662 93.6109 50.494 93.3901 50.4677C93.2823 50.4544 93.1944 50.4209 93.1264 50.3672C93.0579 50.3083 93.02 50.2284 93.0125 50.1275C93.0026 49.9948 93.0492 49.9032 93.1522 49.8528C93.2499 49.8029 93.3784 49.772 93.5377 49.7601C93.6598 49.7511 93.817 49.7474 94.0093 49.7491C94.2065 49.7451 94.4168 49.7375 94.6402 49.7262C94.7806 49.1019 94.9528 48.5819 95.1568 48.1664C95.3608 47.7509 95.5923 47.4187 95.8514 47.1699C96.1101 46.9158 96.3901 46.7321 96.6913 46.619C96.9921 46.5005 97.3071 46.4291 97.6362 46.4046C98.045 46.3742 98.2603 46.505 98.282 46.797C98.2926 46.9403 98.2317 47.0543 98.0992 47.1389C97.9667 47.2235 97.7615 47.3001 97.4837 47.3688C97.1536 47.4521 96.867 47.5828 96.624 47.761C96.3864 47.9388 96.1828 48.1809 96.0134 48.4871C95.8493 48.7929 95.7127 49.182 95.6037 49.6546C96.3405 49.5838 96.9428 49.499 97.4105 49.4001C97.8783 49.3013 98.2374 49.2132 98.4879 49.1359C98.7433 49.0528 98.9214 49.0075 99.0223 49C99.1656 48.9894 99.2558 49.0174 99.2928 49.084C99.3351 49.1503 99.3592 49.2232 99.3651 49.3029C99.3718 49.3931 99.2938 49.4923 99.131 49.6005C99.0243 49.6725 98.8517 49.7574 98.6134 49.8552C98.3748 49.9477 98.0936 50.0433 97.77 50.1421C97.4459 50.2356 97.1026 50.3199 96.7398 50.3949C96.3819 50.4642 96.0305 50.5117 95.6854 50.5373C95.6004 50.5436 95.5235 50.5494 95.4544 50.5545C95.4189 50.8668 95.3848 51.1976 95.3521 51.547C95.3242 51.8907 95.3011 52.2261 95.2827 52.5531C95.2643 52.8801 95.2491 53.1775 95.237 53.4453C95.2302 53.7128 95.23 53.9263 95.2365 54.086C95.2458 54.2828 95.2063 54.4325 95.1178 54.5352C95.0293 54.6379 94.9081 54.6949 94.7542 54.7064ZM106.9 53.3149C106.693 53.3303 106.538 53.2858 106.434 53.1814C106.331 53.0823 106.267 52.8709 106.243 52.547C106.222 52.271 106.241 51.9093 106.298 51.4619C106.356 51.0146 106.421 50.5319 106.495 50.014C105.955 50.7161 105.306 51.186 104.55 51.4237C104.42 51.7537 104.261 52.0591 104.073 52.34C103.886 52.6208 103.676 52.8526 103.445 53.0353C103.217 53.2124 102.974 53.3105 102.714 53.3299C102.39 53.354 102.103 53.2685 101.854 53.0735C101.61 52.8781 101.471 52.5601 101.439 52.1195C101.417 51.8222 101.443 51.5666 101.518 51.3529C101.592 51.1338 101.684 50.9669 101.793 50.852C101.682 50.6574 101.617 50.43 101.598 50.1698C101.572 49.8194 101.644 49.5018 101.815 49.2168C101.986 48.9318 102.223 48.7007 102.525 48.5235C102.832 48.3458 103.171 48.2432 103.543 48.2156C103.75 48.2002 103.95 48.2387 104.144 48.331C104.342 48.4177 104.508 48.5629 104.641 48.7665C104.778 48.9645 104.859 49.2228 104.882 49.5413C104.902 49.8067 104.884 50.1017 104.828 50.4262C105.188 50.1752 105.537 49.8423 105.875 49.4275C106.218 49.0123 106.517 48.5523 106.773 48.0475C106.853 47.8974 106.975 47.8163 107.139 47.804C107.277 47.7938 107.389 47.8282 107.475 47.9072C107.566 47.9805 107.617 48.0835 107.626 48.2162C107.628 48.2428 107.619 48.3316 107.598 48.4826C107.577 48.6336 107.549 48.8305 107.514 49.0734C107.478 49.3109 107.439 49.5728 107.396 49.8589C107.359 50.1446 107.322 50.4356 107.285 50.7319C107.248 51.0283 107.216 51.3083 107.187 51.572C107.307 51.3122 107.436 51.0357 107.574 50.7425C107.717 50.4436 107.866 50.1496 108.021 49.8605C108.175 49.5661 108.329 49.2984 108.482 49.0575C108.635 48.8166 108.778 48.6244 108.911 48.4811C109.044 48.3324 109.161 48.2543 109.262 48.2468C109.464 48.2318 109.638 48.2775 109.785 48.3841C109.932 48.4906 110.01 48.6049 110.019 48.727C110.028 48.8491 110.028 49.0386 110.021 49.2954C110.013 49.5522 110 49.8415 109.981 50.1631C109.967 50.4791 109.951 50.798 109.932 51.1197C109.913 51.4414 109.9 51.7333 109.893 51.9954C109.886 52.2522 109.887 52.4443 109.896 52.5717C109.904 52.6779 109.861 52.7825 109.767 52.8856C109.673 52.9886 109.563 53.0449 109.435 53.0544C109.425 53.0552 109.406 53.0565 109.38 53.0585C109.316 53.0686 109.257 53.0623 109.202 53.0397C109.148 53.0224 109.096 52.9461 109.049 52.8108C109.007 52.6752 108.974 52.4428 108.949 52.1136C108.933 51.8906 108.925 51.6456 108.927 51.3786C108.928 51.1116 108.935 50.8442 108.947 50.5764C108.964 50.3028 108.985 50.0477 109.01 49.8109C108.889 50.0495 108.755 50.3211 108.606 50.6257C108.463 50.9246 108.312 51.2321 108.154 51.5481C107.996 51.8588 107.839 52.1481 107.682 52.416C107.531 52.6781 107.387 52.8917 107.25 53.0567C107.118 53.2213 107.001 53.3074 106.9 53.3149ZM103.708 50.8777C103.762 50.6655 103.802 50.4464 103.828 50.2203C103.853 49.9888 103.858 49.7643 103.842 49.5466C103.835 49.4563 103.81 49.3701 103.766 49.2879C103.723 49.2058 103.656 49.168 103.566 49.1747C103.385 49.1882 103.21 49.2385 103.041 49.3259C102.876 49.4128 102.743 49.5295 102.642 49.6758C102.541 49.8221 102.498 49.9908 102.512 50.182C102.524 50.3519 102.591 50.4911 102.711 50.5996C102.836 50.7077 102.986 50.7846 103.16 50.8304C103.34 50.8758 103.515 50.8921 103.685 50.8795C103.69 50.8791 103.698 50.8785 103.708 50.8777ZM103.434 51.6028C103.248 51.6113 103.066 51.6008 102.887 51.5714C102.709 51.5366 102.544 51.4821 102.395 51.4078C102.385 51.4939 102.375 51.5774 102.365 51.6582C102.355 51.7337 102.352 51.806 102.357 51.875C102.366 51.9918 102.392 52.0966 102.437 52.1894C102.486 52.2765 102.574 52.3153 102.702 52.3058C102.834 52.296 102.963 52.2277 103.087 52.101C103.216 51.974 103.332 51.8079 103.434 51.6028ZM116.277 52.6178C116.049 52.6348 115.885 52.6149 115.784 52.5583C115.689 52.5013 115.637 52.4118 115.628 52.2897C115.62 52.1835 115.651 52.0905 115.72 52.0106C115.788 51.9255 115.947 51.8336 116.196 51.735C116.486 51.6227 116.76 51.4982 117.017 51.3617C117.278 51.2195 117.489 51.0704 117.648 50.9144C117.812 50.758 117.889 50.6002 117.877 50.4409C117.869 50.3348 117.826 50.2605 117.748 50.2183C117.676 50.1756 117.592 50.1579 117.496 50.165C117.416 50.1709 117.301 50.1929 117.149 50.2308C117.002 50.2631 116.839 50.3046 116.661 50.3551C116.483 50.4004 116.31 50.4426 116.142 50.4818C115.979 50.5153 115.839 50.5364 115.723 50.5451C115.447 50.5656 115.238 50.5197 115.096 50.4075C114.954 50.2899 114.875 50.1329 114.861 49.9365C114.853 49.8303 114.898 49.6802 114.995 49.4861C115.093 49.292 115.226 49.0765 115.396 48.8398C115.565 48.603 115.755 48.3646 115.967 48.1246C116.179 47.8847 116.395 47.6631 116.614 47.46C116.839 47.2511 117.053 47.083 117.258 46.9557C117.461 46.8231 117.637 46.7513 117.786 46.7403C117.956 46.7276 118.095 46.7707 118.204 46.8693C118.318 46.9676 118.382 47.107 118.395 47.2875C118.402 47.3725 118.4 47.466 118.392 47.568C118.383 47.6648 118.35 47.7553 118.292 47.8397C118.234 47.9188 118.14 47.9791 118.009 48.0209C117.879 48.0626 117.698 48.0707 117.467 48.0452C117.296 48.1913 117.118 48.3513 116.934 48.5252C116.754 48.6934 116.586 48.8687 116.428 49.0512C116.271 49.2285 116.142 49.4008 116.042 49.5684C116.234 49.4901 116.453 49.4231 116.7 49.3674C116.946 49.3063 117.197 49.2664 117.452 49.2474C117.76 49.2245 118.014 49.2617 118.213 49.359C118.417 49.4506 118.571 49.5832 118.675 49.757C118.784 49.9304 118.846 50.126 118.863 50.3436C118.881 50.5879 118.819 50.838 118.678 51.094C118.537 51.3501 118.341 51.5889 118.091 51.8103C117.84 52.0318 117.558 52.2156 117.243 52.3618C116.928 52.508 116.606 52.5933 116.277 52.6178ZM125.058 47.5209C125.062 47.5846 125.045 47.6419 125.006 47.6929C124.967 47.7438 124.917 47.7849 124.855 47.8162C124.768 47.8601 124.615 47.9195 124.396 47.9945C124.177 48.0694 123.912 48.1559 123.599 48.2539C123.291 48.3515 122.959 48.4536 122.604 48.5601C122.249 48.6612 121.893 48.7597 121.537 48.8556C121.437 49.3755 121.336 49.9116 121.233 50.4637C121.129 51.0106 121.025 51.5495 120.92 52.0804C120.881 52.2702 120.828 52.4156 120.761 52.5167C120.694 52.6231 120.57 52.683 120.39 52.6964C120.193 52.711 120.056 52.6572 119.977 52.5349C119.904 52.4175 119.884 52.2509 119.916 52.035C120.011 51.446 120.098 50.8977 120.178 50.39C120.263 49.8819 120.331 49.4711 120.383 49.1576C120.068 49.2344 119.793 49.2976 119.556 49.3472C119.319 49.3915 119.15 49.4148 119.049 49.417C118.936 49.4146 118.84 49.3764 118.76 49.3023C118.68 49.2282 118.638 49.1325 118.635 49.0154C118.637 48.9084 118.678 48.8146 118.758 48.7339C118.837 48.648 118.934 48.5927 119.05 48.5681C119.213 48.5399 119.424 48.5003 119.681 48.4491C119.939 48.3979 120.223 48.3394 120.533 48.2736C120.582 47.9977 120.641 47.7131 120.71 47.4197C120.778 47.121 120.851 46.8354 120.927 46.5628C121.007 46.2846 121.085 46.0412 121.16 45.8328C121.236 45.6243 121.307 45.4722 121.375 45.3764C121.428 45.3031 121.496 45.2447 121.578 45.2012C121.665 45.1573 121.752 45.1322 121.837 45.1259C121.948 45.1176 122.041 45.1507 122.116 45.2252C122.191 45.2997 122.233 45.3901 122.241 45.4962C122.244 45.5387 122.244 45.584 122.243 45.6322C122.24 45.6751 122.233 45.7183 122.22 45.762C122.139 46.0349 122.054 46.3642 121.965 46.7498C121.882 47.1351 121.796 47.5579 121.707 48.0182C122.101 47.9302 122.487 47.8428 122.865 47.756C123.248 47.6634 123.594 47.579 123.903 47.5026C124.217 47.4205 124.468 47.3512 124.656 47.2945C124.76 47.2494 124.851 47.2507 124.929 47.2982C125.007 47.3405 125.05 47.4147 125.058 47.5209ZM125.471 51.7982C125.142 51.8226 124.868 51.7282 124.649 51.5149C124.43 51.2963 124.301 50.9296 124.263 50.4146C124.239 50.0854 124.251 49.7535 124.301 49.4188C124.356 49.0784 124.441 48.7545 124.557 48.4469C124.678 48.1336 124.823 47.8533 124.991 47.6059C125.165 47.3581 125.361 47.1593 125.579 47.0097C125.797 46.8546 126.029 46.7681 126.273 46.7499C126.687 46.7191 127.019 46.8065 127.269 47.0121C127.519 47.2178 127.657 47.4931 127.683 47.8382C127.703 48.1036 127.646 48.3507 127.514 48.5794C127.386 48.8024 127.204 49.0082 126.967 49.1966C126.73 49.385 126.463 49.5597 126.165 49.7207C125.868 49.8816 125.561 50.0298 125.245 50.1654C125.233 50.3585 125.232 50.5294 125.244 50.678C125.25 50.7683 125.304 50.8096 125.405 50.8021C125.644 50.7844 125.896 50.7283 126.161 50.6338C126.431 50.5337 126.702 50.4121 126.975 50.269C127.247 50.1207 127.508 49.9705 127.758 49.8184C128.008 49.6611 128.234 49.5134 128.438 49.3755C128.646 49.2319 128.816 49.1179 128.949 49.0333C129.086 48.943 129.176 48.8963 129.219 48.8931C129.335 48.8844 129.423 48.9126 129.481 48.9777C129.539 49.0427 129.571 49.1151 129.577 49.1947C129.58 49.2319 129.515 49.3195 129.381 49.4576C129.252 49.5953 129.072 49.7608 128.841 49.9541C128.615 50.1418 128.357 50.3397 128.069 50.5481C127.785 50.7507 127.487 50.9463 127.175 51.135C126.869 51.3179 126.567 51.4684 126.272 51.5865C125.982 51.7094 125.715 51.78 125.471 51.7982ZM125.328 49.4466C125.536 49.303 125.741 49.1543 125.944 49.0005C126.151 48.8409 126.319 48.6682 126.45 48.4824C126.58 48.2912 126.636 48.0762 126.618 47.8373C126.613 47.7683 126.591 47.7245 126.552 47.7061C126.513 47.6823 126.459 47.673 126.39 47.6781C126.204 47.6919 126.04 47.7868 125.898 47.9628C125.762 48.1385 125.645 48.3607 125.548 48.6295C125.455 48.8926 125.382 49.165 125.328 49.4466ZM129.587 53.7903C129.438 53.8014 129.317 53.7569 129.225 53.6571C129.137 53.5621 129.086 53.4085 129.07 53.1961C129.048 52.9041 129.049 52.5544 129.072 52.147C129.095 51.7396 129.135 51.3069 129.192 50.8489C129.249 50.3909 129.314 49.9403 129.388 49.4971C129.478 48.9886 129.569 48.5254 129.661 48.1075C129.758 47.6893 129.861 47.3533 129.97 47.0996C130.084 46.8402 130.208 46.7056 130.341 46.6957C130.463 46.6866 130.572 46.7239 130.669 46.8074C130.771 46.8853 130.828 47.0091 130.841 47.179C130.85 47.3011 130.831 47.4787 130.784 47.7117C130.737 47.9394 130.678 48.224 130.608 48.5656C130.766 48.2549 130.93 47.9491 131.1 47.6482C131.275 47.3469 131.455 47.072 131.639 46.8234C131.824 46.5748 132.006 46.3744 132.187 46.2221C132.368 46.0699 132.543 45.9875 132.713 45.9748C132.915 45.9598 133.097 46.005 133.26 46.1104C133.428 46.2153 133.564 46.3653 133.67 46.5603C133.775 46.7554 133.837 46.9803 133.856 47.2351C133.891 47.7076 133.84 48.1732 133.703 48.6317C133.566 49.085 133.36 49.4981 133.083 49.871C132.812 50.2435 132.485 50.548 132.102 50.7847C131.719 51.016 131.296 51.1489 130.834 51.1832C130.702 51.1931 130.579 51.1889 130.465 51.1706C130.357 51.1573 130.257 51.138 130.164 51.1129C130.126 51.4574 130.091 51.8097 130.059 52.1697C130.033 52.5347 130.005 52.9184 129.976 53.3209C129.934 53.6177 129.804 53.7741 129.587 53.7903ZM132.863 46.9086C132.746 46.9173 132.603 47.008 132.435 47.1806C132.271 47.3529 132.096 47.5768 131.908 47.8524C131.72 48.1226 131.531 48.4169 131.341 48.7353C131.156 49.048 130.979 49.3548 130.809 49.6557C130.644 49.9562 130.504 50.2175 130.387 50.4398C130.787 50.3673 131.135 50.2347 131.43 50.0419C131.725 49.8438 131.972 49.6119 132.171 49.3462C132.37 49.0805 132.526 48.8047 132.638 48.5188C132.755 48.2271 132.836 47.9462 132.88 47.676C132.924 47.4059 132.938 47.1725 132.924 46.9761C132.92 46.9283 132.9 46.9058 132.863 46.9086ZM139.072 50.8591C138.806 50.8788 138.613 50.8291 138.492 50.71C138.377 50.5958 138.314 50.4723 138.305 50.3396C138.296 50.2228 138.314 50.112 138.36 50.0072C138.41 49.8966 138.505 49.8042 138.644 49.7298C138.782 49.6555 138.985 49.6137 139.251 49.6046C139.506 49.4468 139.762 49.257 140.017 49.0351C140.278 48.8129 140.525 48.5704 140.756 48.3076C140.993 48.0445 141.2 47.7782 141.377 47.5087C141.56 47.2336 141.697 46.9671 141.79 46.7093C141.888 46.4458 141.929 46.2025 141.912 45.9796C141.894 45.7407 141.807 45.5657 141.649 45.4546C141.496 45.3432 141.29 45.2971 141.03 45.3165C140.807 45.333 140.605 45.3748 140.423 45.4417C140.241 45.5033 140.08 45.5739 139.942 45.6536C139.804 45.7333 139.686 45.8034 139.589 45.864C139.497 45.9189 139.422 45.9485 139.364 45.9528C139.263 45.9603 139.169 45.9246 139.084 45.8455C138.997 45.7612 138.965 45.6462 138.986 45.5005C139 45.4033 139.055 45.2845 139.151 45.1438C139.248 45.0032 139.384 44.8596 139.56 44.7131C139.736 44.5666 139.948 44.4414 140.197 44.3375C140.45 44.2279 140.739 44.161 141.062 44.137C141.583 44.0983 142.017 44.2262 142.364 44.5206C142.717 44.8147 142.918 45.2882 142.966 45.9412C142.998 46.3713 142.915 46.8018 142.718 47.2329C142.526 47.6636 142.258 48.0785 141.914 48.4778C141.57 48.877 141.189 49.247 140.771 49.5877C141.168 49.5421 141.477 49.4952 141.697 49.4467C141.918 49.393 142.093 49.3479 142.224 49.3115C142.36 49.2747 142.492 49.2516 142.619 49.2421C142.8 49.2287 142.943 49.2554 143.049 49.3222C143.156 49.389 143.214 49.4915 143.224 49.6295C143.232 49.7304 143.213 49.8305 143.167 49.9301C143.126 50.0292 143.037 50.1239 142.9 50.2142C142.762 50.2991 142.559 50.3729 142.291 50.4355C142.024 50.5034 141.67 50.5538 141.23 50.5865C140.97 50.6059 140.701 50.6232 140.425 50.6384C140.154 50.6532 139.89 50.6648 139.635 50.6731C139.49 50.7372 139.376 50.7831 139.293 50.8106C139.214 50.8378 139.141 50.8539 139.072 50.8591Z" fill="black"/>
<path d="M42.7445 84.2914C42.5481 84.306 42.3401 84.2735 42.1207 84.1937C41.9016 84.1192 41.7097 83.9787 41.5448 83.7721C41.3853 83.5651 41.2921 83.2811 41.2653 82.92C41.2369 82.5378 41.2393 82.1399 41.2726 81.7264C41.3109 81.3072 41.3683 80.8945 41.4448 80.4884C41.5263 80.0767 41.6176 79.6882 41.7185 79.323C41.8248 78.9575 41.9314 78.6319 42.0383 78.3464C42.1505 78.0604 42.2566 77.8364 42.3566 77.6741C42.4616 77.5062 42.5486 77.4196 42.6176 77.4145C42.7609 77.4038 42.8923 77.4474 43.0117 77.5453C43.1364 77.6428 43.2068 77.8004 43.223 78.0181C43.2269 78.0712 43.2048 78.2036 43.1564 78.4154C43.113 78.6215 43.0548 78.8794 42.9818 79.1891C42.914 79.4984 42.8376 79.8351 42.7526 80.199C42.6724 80.5573 42.598 80.9205 42.5293 81.2886C42.4659 81.6564 42.4141 82.0019 42.3741 82.3251C42.3394 82.648 42.3305 82.9236 42.3475 83.1519C42.3522 83.2156 42.3918 83.2447 42.4661 83.2391C42.5723 83.2313 42.7269 83.1931 42.93 83.1246C43.1384 83.0557 43.3644 82.9722 43.608 82.874C43.8565 82.7701 44.0946 82.6697 44.3223 82.5727C44.55 82.4757 44.7441 82.3945 44.9048 82.3292C45.0654 82.2638 45.1563 82.2304 45.1776 82.2288C45.3103 82.2189 45.4192 82.2482 45.5044 82.3166C45.5896 82.385 45.6373 82.4882 45.6475 82.6263C45.6546 82.7218 45.5992 82.8381 45.4813 82.9749C45.3629 83.1065 45.2025 83.2466 45 83.3951C44.7971 83.5383 44.5669 83.6728 44.3094 83.7988C44.0575 83.9296 43.7961 84.0398 43.5252 84.1293C43.2543 84.2188 42.994 84.2729 42.7445 84.2914ZM47.6475 83.7828C47.3184 83.8073 47.0444 83.7129 46.8257 83.4996C46.6066 83.281 46.4779 82.9142 46.4396 82.3992C46.4152 82.0701 46.4279 81.7382 46.4777 81.4035C46.5325 81.0631 46.6178 80.7391 46.7338 80.4316C46.8546 80.1183 46.9993 79.8379 47.1677 79.5905C47.3415 79.3427 47.5376 79.144 47.756 78.9943C47.974 78.8393 48.2051 78.7527 48.4493 78.7346C48.8634 78.7038 49.1956 78.7912 49.4457 78.9968C49.6959 79.2024 49.8338 79.4777 49.8595 79.8228C49.8792 80.0883 49.8228 80.3354 49.6904 80.5641C49.5628 80.7871 49.3806 80.9928 49.1437 81.1813C48.9068 81.3697 48.6395 81.5444 48.3419 81.7053C48.0442 81.8662 47.7376 82.0145 47.4221 82.15C47.4097 82.3431 47.4091 82.514 47.4201 82.6626C47.4268 82.7529 47.4806 82.7943 47.5815 82.7868C47.8204 82.769 48.0725 82.7129 48.3377 82.6185C48.6078 82.5183 48.8791 82.3967 49.1514 82.2537C49.4233 82.1053 49.6843 81.9551 49.9346 81.8031C50.1845 81.6457 50.4111 81.4981 50.6144 81.3602C50.8225 81.2166 50.9929 81.1025 51.1254 81.0179C51.2628 80.9276 51.3528 80.8809 51.3952 80.8777C51.512 80.8691 51.5995 80.8972 51.6578 80.9623C51.716 81.0274 51.7481 81.0997 51.754 81.1794C51.7567 81.2165 51.6912 81.3041 51.5573 81.4422C51.4288 81.5799 51.2489 81.7454 51.0177 81.9388C50.7914 82.1264 50.5339 82.3244 50.2451 82.5327C49.9612 82.7353 49.6635 82.9309 49.3519 83.1196C49.0452 83.3025 48.7441 83.453 48.4486 83.5711C48.1588 83.6941 47.8917 83.7646 47.6475 83.7828ZM47.5047 81.4312C47.7129 81.2876 47.9181 81.1389 48.1202 80.9851C48.3272 80.8256 48.4958 80.6529 48.6262 80.467C48.7561 80.2759 48.8122 80.0608 48.7944 79.8219C48.7893 79.7529 48.7673 79.7092 48.7286 79.6907C48.6895 79.6669 48.6354 79.6576 48.5664 79.6627C48.3806 79.6765 48.2168 79.7715 48.0751 79.9475C47.9386 80.1231 47.8217 80.3453 47.7243 80.6142C47.6317 80.8773 47.5585 81.1496 47.5047 81.4312ZM57.6641 83.4945C57.4465 83.5107 57.2909 83.5009 57.1975 83.4652C57.1045 83.4347 57.0454 83.3937 57.0202 83.3422C57.0003 83.2903 56.9886 83.2405 56.9851 83.1927C56.9847 83.1874 56.9843 83.1821 56.9839 83.1768C56.9784 83.1024 57.0043 83.0204 57.0617 82.9308C57.1195 82.8464 57.1891 82.7772 57.2705 82.7231C57.3772 82.6511 57.4836 82.5738 57.5895 82.4911C57.7008 82.4081 57.7906 82.3241 57.859 82.2389C57.9324 82.148 57.9659 82.0601 57.9595 81.9752C57.9552 81.9168 57.8894 81.8576 57.7622 81.7977C57.6345 81.7324 57.4769 81.6587 57.2893 81.5766C57.107 81.4941 56.9211 81.3984 56.7315 81.2898C56.5419 81.1811 56.3801 81.0516 56.2462 80.9014C56.1123 80.7513 56.038 80.5779 56.0234 80.3815C56.0178 80.3072 56.0201 80.2296 56.0301 80.1488C55.862 80.2574 55.6966 80.3658 55.5338 80.474C55.3763 80.5818 55.2215 80.6894 55.0693 80.7968C55.0709 80.818 55.0725 80.8392 55.0741 80.8605C55.0966 81.1631 55.0578 81.4676 54.9578 81.774C54.8627 82.0746 54.7258 82.3517 54.5472 82.6052C54.3738 82.8583 54.173 83.0654 53.9448 83.2265C53.7165 83.3877 53.4829 83.4771 53.244 83.4948C52.8299 83.5256 52.5151 83.4556 52.2996 83.2848C52.0893 83.1136 51.9749 82.9032 51.9564 82.6537C51.9382 82.4095 52.0051 82.1963 52.157 82.0142C52.309 81.8321 52.5402 81.6387 52.8506 81.4342C52.9619 81.3511 53.1169 81.2462 53.3157 81.1193C53.5193 80.9867 53.7459 80.8391 53.9954 80.6764C53.9574 80.6686 53.9119 80.6666 53.8588 80.6706C53.7898 80.6757 53.6801 80.7079 53.5297 80.7671C53.3789 80.821 53.2052 80.89 53.0086 80.974C52.8169 81.0523 52.6199 81.131 52.4176 81.2101C52.2206 81.2888 52.0389 81.3584 51.8726 81.4188C51.7058 81.4739 51.5747 81.505 51.4791 81.5121C51.219 81.5314 51.0176 81.4797 50.875 81.3568C50.7377 81.2336 50.6618 81.0737 50.6472 80.8773C50.6381 80.7552 50.6777 80.6054 50.7659 80.4281C50.8542 80.2507 50.9735 80.0603 51.1239 79.8569C51.2795 79.6532 51.4513 79.4509 51.6393 79.2501C51.8272 79.0493 52.0192 78.8669 52.2151 78.7028C52.4111 78.5388 52.5987 78.4047 52.7778 78.3006C52.9569 78.1966 53.1075 78.14 53.2296 78.1309C53.3836 78.1195 53.5096 78.1635 53.6078 78.263C53.7055 78.3571 53.7609 78.4918 53.7739 78.667C53.7806 78.7573 53.7657 78.8438 53.7292 78.9266C53.6979 79.009 53.6285 79.0809 53.521 79.1422C53.4131 79.1983 53.2507 79.2397 53.0338 79.2665C52.9376 79.3377 52.8219 79.4318 52.6864 79.5486C52.551 79.6654 52.4159 79.7876 52.2812 79.915C52.1519 80.0421 52.0354 80.1629 51.9318 80.2773C51.8335 80.3914 51.7686 80.487 51.7369 80.5641C51.8207 80.5418 51.9401 80.4956 52.095 80.4253C52.2499 80.3551 52.4259 80.2806 52.6229 80.2019C52.8248 80.1175 53.0302 80.0435 53.239 79.98C53.4474 79.9111 53.6418 79.8699 53.8223 79.8565C54.263 79.8238 54.5906 79.9222 54.8052 80.1518C55.0751 79.9769 55.3503 79.8016 55.6309 79.626C55.911 79.445 56.1836 79.2699 56.4486 79.1007C56.5974 78.8761 56.7713 78.6657 56.9702 78.4694C57.1688 78.2678 57.3769 78.0869 57.5945 77.9265C57.8174 77.7658 58.0321 77.6378 58.2385 77.5423C58.4503 77.4465 58.6438 77.3921 58.819 77.3791C58.9623 77.3684 59.0743 77.4028 59.1549 77.4822C59.2352 77.5563 59.2787 77.6385 59.2854 77.7288C59.2881 77.7659 59.2829 77.8037 59.2698 77.842C59.2619 77.88 59.231 77.9303 59.1769 77.9931C59.1224 78.0505 59.0269 78.1297 58.8903 78.2306C58.7586 78.3258 58.5706 78.4545 58.3264 78.6168C58.1992 78.701 58.0645 78.7911 57.9221 78.8871C57.7794 78.9778 57.6318 79.0742 57.4792 79.1763C57.3322 79.3527 57.2098 79.5379 57.1121 79.732C57.0141 79.9208 56.9716 80.1028 56.9846 80.278C56.9921 80.3789 57.0576 80.4701 57.1811 80.5517C57.3099 80.6329 57.4655 80.7147 57.6478 80.7972C57.835 80.8741 58.0205 80.9644 58.2044 81.0682C58.3883 81.1719 58.5443 81.2965 58.6726 81.4417C58.8061 81.5866 58.8808 81.7652 58.8966 81.9776C58.9084 82.1369 58.8782 82.3046 58.8059 82.4808C58.7385 82.6513 58.6436 82.8105 58.5211 82.9584C58.4043 83.1112 58.2695 83.236 58.1165 83.3328C57.9689 83.4292 57.8181 83.4831 57.6641 83.4945ZM54.1313 81.427C53.7554 81.6845 53.476 81.8761 53.2932 82.0018C53.1967 82.0677 53.1132 82.13 53.0428 82.1886C52.9721 82.2419 52.9404 82.319 52.9479 82.4198C52.9586 82.5632 53.0595 82.6277 53.2506 82.6135C53.378 82.6041 53.4984 82.5364 53.6118 82.4105C53.7306 82.2842 53.8341 82.1324 53.9223 81.955C54.0158 81.7773 54.0855 81.6013 54.1313 81.427ZM51.7252 80.621C51.7256 80.6263 51.726 80.6316 51.7264 80.6369C51.726 80.6316 51.7256 80.6263 51.7252 80.621ZM65.0721 82.6235C64.8438 82.6405 64.6795 82.6207 64.5792 82.564C64.4843 82.5071 64.4322 82.4175 64.4231 82.2954C64.4153 82.1892 64.4457 82.0962 64.5145 82.0163C64.5829 81.9312 64.7416 81.8393 64.9905 81.7407C65.2811 81.6284 65.5547 81.5039 65.8115 81.3674C66.0732 81.2252 66.2836 81.0761 66.4429 80.9201C66.6074 80.7637 66.6838 80.6059 66.6719 80.4466C66.664 80.3405 66.6211 80.2663 66.5433 80.224C66.4707 80.1813 66.3866 80.1636 66.2911 80.1707C66.2114 80.1766 66.0956 80.1986 65.9436 80.2365C65.7966 80.2688 65.6342 80.3103 65.4564 80.3609C65.2783 80.4061 65.1053 80.4483 64.9373 80.4875C64.7743 80.521 64.6344 80.5421 64.5176 80.5508C64.2416 80.5713 64.0326 80.5254 63.8908 80.4132C63.7487 80.2956 63.6703 80.1386 63.6556 79.9422C63.6478 79.836 63.6926 79.6859 63.7903 79.4918C63.888 79.2977 64.0214 79.0822 64.1907 78.8455C64.3599 78.6087 64.5504 78.3703 64.7621 78.1303C64.9738 77.8904 65.1896 77.6688 65.4093 77.4657C65.634 77.2568 65.8484 77.0887 66.0525 76.9614C66.2561 76.8288 66.4323 76.757 66.581 76.746C66.7508 76.7333 66.8902 76.7764 66.9989 76.875C67.113 76.9733 67.1768 77.1127 67.1902 77.2932C67.1965 77.3782 67.1954 77.4717 67.187 77.5737C67.1782 77.6705 67.1449 77.761 67.0871 77.8454C67.0289 77.9245 66.9346 77.9848 66.8043 78.0266C66.6739 78.0683 66.493 78.0764 66.2616 78.0509C66.091 78.197 65.9133 78.357 65.7287 78.5309C65.5491 78.6991 65.3806 78.8744 65.2234 79.0569C65.0657 79.2342 64.9371 79.4065 64.8374 79.5741C65.0291 79.4958 65.2483 79.4288 65.4951 79.3731C65.7414 79.312 65.992 79.2721 66.2469 79.2531C66.5548 79.2302 66.8085 79.2674 67.0079 79.3647C67.2122 79.4563 67.3662 79.5889 67.4699 79.7627C67.5788 79.9361 67.6414 80.1317 67.6576 80.3493C67.6758 80.5936 67.6143 80.8437 67.4732 81.0997C67.3321 81.3558 67.1363 81.5946 66.8858 81.816C66.6354 82.0375 66.3528 82.2213 66.038 82.3675C65.7232 82.5137 65.4013 82.599 65.0721 82.6235ZM71.6659 82.0852C71.5438 82.0943 71.4285 82.0522 71.3202 81.9588C71.2175 81.8703 71.1577 81.712 71.1407 81.4837C71.1281 81.3138 71.1238 81.0766 71.1278 80.772C71.1368 80.4617 71.1658 80.0618 71.2148 79.5724C71.0574 79.9685 70.8889 80.3226 70.7093 80.6349C70.5296 80.9472 70.3479 81.1956 70.1641 81.3801C69.9852 81.5589 69.8082 81.6548 69.633 81.6678C69.3516 81.6888 69.1223 81.6204 68.9451 81.4627C68.7675 81.2998 68.661 80.9794 68.6254 80.5016C68.6085 80.2733 68.6079 80.0144 68.6238 79.725C68.6449 79.4352 68.6767 79.1445 68.7191 78.8531C68.7615 78.5617 68.8062 78.3021 68.8534 78.0744C68.9054 77.841 68.9538 77.6666 68.9986 77.5511C69.034 77.4524 69.0816 77.3741 69.1413 77.3163C69.2064 77.2581 69.292 77.225 69.3982 77.2172C69.5681 77.2045 69.7023 77.2506 69.8008 77.3554C69.8994 77.4602 69.953 77.5709 69.9617 77.6877C69.9684 77.778 69.9568 77.9096 69.927 78.0827C69.9024 78.2553 69.8687 78.4473 69.8257 78.6587C69.788 78.8697 69.748 79.0862 69.7058 79.3082C69.6636 79.5303 69.6283 79.7384 69.6001 79.9327C69.5771 80.1266 69.5706 80.2899 69.5805 80.4226C69.5927 80.5872 69.6625 80.6647 69.7899 80.6552C69.8643 80.6497 69.9545 80.5709 70.0606 80.4189C70.1721 80.2665 70.2853 80.0659 70.4002 79.8171C70.5201 79.5627 70.6384 79.287 70.7551 78.99C70.8768 78.6874 70.9849 78.383 71.0796 78.0771C71.1792 77.7654 71.262 77.479 71.328 77.2178C71.3693 77.0546 71.4327 76.9378 71.5182 76.8674C71.6037 76.7969 71.7049 76.7574 71.8217 76.7487C72.0022 76.7353 72.1439 76.7755 72.247 76.8692C72.3554 76.9626 72.4165 77.1022 72.4303 77.288C72.4366 77.3729 72.434 77.5173 72.4224 77.721C72.4109 77.9247 72.3939 78.1635 72.3716 78.4374C72.3546 78.711 72.3308 79.001 72.3002 79.3075C72.2696 79.6141 72.2386 79.9154 72.2072 80.2113C72.1811 80.5068 72.1533 80.7785 72.1237 81.0263C72.0936 81.2687 72.068 81.4628 72.0468 81.6085C72.0095 81.8248 71.9553 81.957 71.8841 82.005C71.813 82.053 71.7402 82.0797 71.6659 82.0852ZM73.9509 84.1254C73.8022 84.1365 73.6815 84.0921 73.5886 83.9922C73.5015 83.8972 73.45 83.7436 73.4342 83.5312C73.4125 83.2392 73.4132 82.8895 73.4363 82.4821C73.4594 82.0747 73.4993 81.642 73.556 81.184C73.6127 80.726 73.678 80.2754 73.7518 79.8322C73.8421 79.3237 73.9331 78.8605 74.0248 78.4426C74.1219 78.0244 74.225 77.6884 74.3343 77.4347C74.4484 77.1753 74.5719 77.0407 74.7046 77.0308C74.8267 77.0218 74.9362 77.059 75.0332 77.1425C75.1351 77.2204 75.1923 77.3442 75.205 77.5141C75.214 77.6362 75.1952 77.8138 75.1485 78.0468C75.1014 78.2745 75.0424 78.5592 74.9717 78.9007C75.1301 78.59 75.2942 78.2842 75.4641 77.9833C75.6392 77.682 75.8189 77.4071 76.0033 77.1585C76.1877 76.9099 76.3703 76.7095 76.5511 76.5572C76.732 76.405 76.9074 76.3226 77.0773 76.3099C77.279 76.2949 77.4612 76.3401 77.6238 76.4455C77.7918 76.5504 77.9284 76.7004 78.0336 76.8954C78.1389 77.0905 78.201 77.3154 78.2199 77.5702C78.2551 78.0427 78.2043 78.5083 78.0675 78.9669C77.9304 79.4201 77.7236 79.8332 77.447 80.2061C77.1757 80.5786 76.8487 80.8832 76.466 81.1198C76.0828 81.3512 75.6603 81.484 75.1984 81.5183C75.0657 81.5282 74.9426 81.524 74.8291 81.5058C74.7213 81.4924 74.6212 81.4732 74.5285 81.448C74.4901 81.7925 74.4549 82.1448 74.4229 82.5048C74.3967 82.8698 74.3692 83.2535 74.3404 83.6561C74.2984 83.9528 74.1685 84.1092 73.9509 84.1254ZM77.2268 77.2437C77.11 77.2524 76.9672 77.3431 76.7986 77.5158C76.6352 77.6881 76.4597 77.912 76.272 78.1875C76.0839 78.4577 75.8949 78.752 75.705 79.0704C75.5201 79.3831 75.3427 79.6899 75.1729 79.9908C75.0084 80.2913 74.8677 80.5527 74.7507 80.7749C75.1511 80.7024 75.4989 80.5698 75.7942 80.377C76.0891 80.1789 76.3361 79.947 76.5352 79.6813C76.7343 79.4156 76.8899 79.1398 77.0021 78.8539C77.1193 78.5622 77.1998 78.2813 77.2438 78.0112C77.2878 77.741 77.3024 77.5077 77.2878 77.3112C77.2843 77.2634 77.2639 77.2409 77.2268 77.2437ZM79.5094 83.7122C79.3607 83.7232 79.24 83.6788 79.1472 83.579C79.06 83.484 79.0086 83.3303 78.9928 83.118C78.9711 82.826 78.9718 82.4763 78.9949 82.0689C79.0179 81.6614 79.0578 81.2287 79.1145 80.7708C79.1713 80.3128 79.2365 79.8622 79.3103 79.419C79.4006 78.9105 79.4917 78.4473 79.5834 78.0294C79.6804 77.6111 79.7835 77.2752 79.8928 77.0215C80.007 76.7621 80.1304 76.6275 80.2631 76.6176C80.3852 76.6085 80.4948 76.6457 80.5917 76.7293C80.6936 76.8071 80.7509 76.931 80.7635 77.1009C80.7726 77.223 80.7537 77.4005 80.707 77.6336C80.6599 77.8613 80.601 78.1459 80.5303 78.4875C80.6887 78.1768 80.8528 77.871 81.0226 77.5701C81.1977 77.2688 81.3775 76.9938 81.5618 76.7453C81.7462 76.4967 81.9288 76.2962 82.1097 76.144C82.2905 75.9918 82.4659 75.9093 82.6358 75.8967C82.8375 75.8817 83.0197 75.9269 83.1824 76.0322C83.3503 76.1372 83.4869 76.2872 83.5922 76.4822C83.6974 76.6772 83.7595 76.9022 83.7785 77.157C83.8136 77.6295 83.7628 78.095 83.6261 78.5536C83.4889 79.0069 83.2821 79.42 83.0055 79.7928C82.7343 80.1653 82.4073 80.4699 82.0245 80.7066C81.6413 80.9379 81.2188 81.0707 80.7569 81.1051C80.6242 81.115 80.5011 81.1108 80.3876 81.0925C80.2799 81.0792 80.1797 81.0599 80.0871 81.0348C80.0486 81.3793 80.0134 81.7316 79.9815 82.0916C79.9552 82.4566 79.9277 82.8403 79.8989 83.2428C79.8569 83.5395 79.7271 83.696 79.5094 83.7122ZM82.7853 76.8305C82.6685 76.8391 82.5258 76.9298 82.3571 77.1025C82.1937 77.2748 82.0182 77.4987 81.8305 77.7742C81.6424 78.0445 81.4534 78.3388 81.2636 78.6572C81.0786 78.9699 80.9012 79.2767 80.7314 79.5776C80.5669 79.8781 80.4262 80.1394 80.3093 80.3616C80.7096 80.2892 81.0574 80.1566 81.3527 79.9638C81.6476 79.7657 81.8946 79.5338 82.0937 79.2681C82.2928 79.0024 82.4485 78.7266 82.5607 78.4406C82.6778 78.149 82.7583 77.8681 82.8023 77.5979C82.8463 77.3277 82.861 77.0944 82.8464 76.898C82.8428 76.8502 82.8225 76.8277 82.7853 76.8305ZM86.0871 80.917C85.7101 80.945 85.3977 80.8348 85.1496 80.5863C84.9012 80.3325 84.7602 79.98 84.7267 79.5288C84.716 79.3854 84.7238 79.238 84.7499 79.0866C84.7813 78.9348 84.8215 78.793 84.8704 78.6613C84.835 78.6159 84.8039 78.5568 84.7771 78.484C84.7553 78.4056 84.7404 78.3133 84.7325 78.2071C84.7069 77.862 84.7445 77.5416 84.8452 77.2458C84.9456 76.9448 85.0915 76.6804 85.2827 76.4526C85.474 76.2249 85.69 76.0433 85.9309 75.908C86.1717 75.7726 86.4196 75.6955 86.6744 75.6765C87.1097 75.6442 87.4763 75.7637 87.774 76.0352C88.0771 76.3062 88.2516 76.7497 88.2973 77.3655C88.3202 77.6735 88.2957 77.9902 88.2239 78.3159C88.152 78.6415 88.0446 78.9565 87.9017 79.2607C87.7638 79.5592 87.5971 79.8305 87.4017 80.0746C87.2116 80.3183 87.0021 80.5153 86.7731 80.6658C86.5493 80.8159 86.3207 80.8996 86.0871 80.917ZM85.7596 78.2348C85.7904 78.2913 85.8088 78.3593 85.8148 78.4389C85.8207 78.5186 85.8109 78.602 85.7853 78.6894C85.7598 78.7767 85.7364 78.8932 85.7152 79.0389C85.6936 79.1793 85.6925 79.3796 85.7119 79.6397C85.717 79.7087 85.7293 79.7665 85.7488 79.8131C85.7732 79.854 85.8199 79.8719 85.8889 79.8668C86.0694 79.8533 86.2349 79.7823 86.3855 79.6537C86.5414 79.5246 86.676 79.3598 86.7892 79.1592C86.9077 78.9582 87.0034 78.7376 87.0763 78.4973C87.1541 78.2513 87.2078 78.0044 87.2374 77.7566C87.2719 77.5032 87.2813 77.2703 87.2655 77.0579C87.2553 76.9199 87.2216 76.8263 87.1646 76.7771C87.1075 76.728 87.0127 76.7084 86.8799 76.7182C86.6994 76.7316 86.518 76.8039 86.3355 76.9349C86.158 77.0602 86.0128 77.2258 85.9 77.4317C85.7868 77.6323 85.7393 77.8547 85.7575 78.0989C85.761 78.1467 85.7617 78.192 85.7596 78.2348ZM89.7094 80.7358C89.5767 80.7457 89.459 80.7064 89.3563 80.6179C89.259 80.5291 89.2036 80.3944 89.1902 80.2139C89.1843 80.1342 89.1852 80.0034 89.193 79.8213C89.2057 79.6335 89.2218 79.4188 89.2412 79.1771C89.2659 78.9351 89.2872 78.6826 89.305 78.4197C89.3281 78.1564 89.3443 77.9069 89.3535 77.6714C89.368 77.4354 89.3744 77.2348 89.3728 77.0694C89.3684 76.8669 89.4108 76.7196 89.5001 76.6275C89.5889 76.5302 89.6997 76.4766 89.8324 76.4667C89.9386 76.4588 90.0362 76.4782 90.1251 76.525C90.2189 76.5661 90.2823 76.6655 90.3154 76.8231C90.3534 76.9751 90.3726 77.1979 90.3731 77.4915C90.5751 77.0494 90.7831 76.6522 90.9971 76.3C91.2165 75.9474 91.4516 75.663 91.7024 75.4468C92.1182 75.0796 92.504 74.8828 92.8596 74.8563C93.0614 74.8413 93.1975 74.8766 93.2679 74.9621C93.3383 75.0476 93.3771 75.1382 93.3842 75.2337C93.3889 75.2974 93.3773 75.357 93.3494 75.4125C93.3268 75.4675 93.2726 75.5276 93.1866 75.5927C93.1007 75.6578 92.9684 75.7451 92.7897 75.8545C92.5497 76.0004 92.3152 76.186 92.0864 76.4112C91.8629 76.636 91.6437 76.9192 91.4289 77.2608C91.2141 77.6025 91.0021 78.0186 90.7931 78.5092C90.584 78.9999 90.3736 79.5814 90.162 80.2537C90.1277 80.4378 90.0675 80.5624 89.9816 80.6275C89.901 80.6922 89.8103 80.7283 89.7094 80.7358ZM98.5811 75.6882C98.5858 75.7519 98.5687 75.8092 98.5298 75.8601C98.4909 75.9111 98.4405 75.9522 98.3788 75.9834C98.2913 76.0273 98.1383 76.0867 97.9196 76.1617C97.701 76.2367 97.4352 76.3232 97.1222 76.4212C96.8144 76.5188 96.4831 76.6209 96.128 76.7273C95.7725 76.8285 95.4168 76.927 95.0609 77.0229C94.9608 77.5428 94.8592 78.0788 94.7561 78.631C94.6526 79.1779 94.5485 79.7167 94.4439 80.2477C94.4046 80.4374 94.3514 80.5829 94.2841 80.684C94.2173 80.7903 94.0936 80.8503 93.9131 80.8637C93.7167 80.8783 93.5792 80.8244 93.5008 80.7022C93.428 80.5848 93.4076 80.4181 93.4396 80.2022C93.5346 79.6133 93.6219 79.065 93.7016 78.5572C93.7866 78.0491 93.8549 77.6383 93.9063 77.3249C93.5917 77.4017 93.3161 77.4649 93.0796 77.5145C92.8427 77.5588 92.6736 77.582 92.5723 77.5842C92.46 77.5819 92.3638 77.5437 92.2835 77.4696C92.2033 77.3955 92.1615 77.2998 92.1581 77.1826C92.1608 77.0756 92.2019 76.9818 92.2813 76.9012C92.3603 76.8152 92.4576 76.76 92.5733 76.7354C92.7367 76.7072 92.9472 76.6675 93.205 76.6163C93.4628 76.5651 93.7467 76.5067 94.0568 76.4409C94.1057 76.165 94.1646 75.8804 94.2335 75.587C94.302 75.2883 94.3742 75.0026 94.4501 74.7301C94.5308 74.4518 94.6088 74.2085 94.6841 74C94.7593 73.7916 94.8307 73.6395 94.8984 73.5437C94.9516 73.4703 95.0193 73.4119 95.1015 73.3684C95.189 73.3246 95.2752 73.2995 95.3602 73.2932C95.4717 73.2849 95.5649 73.318 95.6398 73.3925C95.7148 73.467 95.7562 73.5573 95.7641 73.6635C95.7672 73.706 95.7679 73.7513 95.7662 73.7995C95.764 73.8423 95.7565 73.8856 95.7438 73.9293C95.6626 74.2022 95.5777 74.5315 95.4889 74.9171C95.4055 75.3023 95.3194 75.7251 95.2309 76.1855C95.6247 76.0975 96.0106 76.01 96.3885 75.9232C96.7713 75.8307 97.1173 75.7463 97.4266 75.6699C97.7408 75.5878 97.9919 75.5184 98.1799 75.4617C98.2833 75.4167 98.3741 75.4179 98.4524 75.4655C98.5303 75.5078 98.5732 75.582 98.5811 75.6882ZM101.766 79.8395C101.633 79.8493 101.515 79.81 101.413 79.7216C101.315 79.6327 101.26 79.4981 101.246 79.3176C101.24 79.2379 101.241 79.1071 101.249 78.925C101.262 78.7372 101.278 78.5225 101.297 78.2808C101.322 78.0387 101.343 77.7863 101.361 77.5234C101.384 77.2601 101.4 77.0106 101.41 76.7751C101.424 76.5391 101.431 76.3384 101.429 76.1731C101.425 75.9705 101.467 75.8233 101.556 75.7312C101.645 75.6339 101.756 75.5802 101.889 75.5704C101.995 75.5625 102.092 75.5819 102.181 75.6287C102.275 75.6698 102.338 75.7691 102.372 75.9268C102.41 76.0788 102.429 76.3016 102.429 76.5952C102.631 76.1531 102.839 75.7559 103.053 75.4037C103.273 75.0511 103.508 74.7667 103.759 74.5505C104.174 74.1833 104.56 73.9865 104.916 73.96C105.118 73.945 105.254 73.9803 105.324 74.0658C105.394 74.1513 105.433 74.2419 105.44 74.3374C105.445 74.4011 105.434 74.4607 105.406 74.5162C105.383 74.5712 105.329 74.6313 105.243 74.6964C105.157 74.7615 105.025 74.8488 104.846 74.9581C104.606 75.1041 104.371 75.2897 104.143 75.5149C103.919 75.7397 103.7 76.0229 103.485 76.3645C103.27 76.7061 103.058 77.1223 102.849 77.6129C102.64 78.1036 102.43 78.6851 102.218 79.3574C102.184 79.5415 102.124 79.666 102.038 79.7312C101.957 79.7959 101.866 79.832 101.766 79.8395ZM106.355 79.4182C106.026 79.4426 105.752 79.3482 105.534 79.135C105.314 78.9164 105.186 78.5496 105.148 78.0346C105.123 77.7055 105.136 77.3735 105.186 77.0389C105.24 76.6985 105.326 76.3745 105.442 76.0669C105.562 75.7537 105.707 75.4733 105.876 75.2259C106.049 74.9781 106.245 74.7794 106.464 74.6297C106.682 74.4747 106.913 74.3881 107.157 74.3699C107.571 74.3391 107.903 74.4266 108.154 74.6322C108.404 74.8378 108.542 75.1131 108.567 75.4582C108.587 75.7237 108.531 75.9707 108.398 76.1995C108.271 76.4225 108.088 76.6282 107.852 76.8166C107.615 77.0051 107.347 77.1797 107.05 77.3407C106.752 77.5016 106.445 77.6498 106.13 77.7854C106.118 77.9785 106.117 78.1494 106.128 78.298C106.135 78.3883 106.188 78.4297 106.289 78.4222C106.528 78.4044 106.78 78.3483 107.046 78.2538C107.316 78.1537 107.587 78.0321 107.859 77.8891C108.131 77.7407 108.392 77.5905 108.642 77.4385C108.892 77.2811 109.119 77.1335 109.322 76.9956C109.53 76.852 109.701 76.7379 109.833 76.6533C109.971 76.563 110.061 76.5163 110.103 76.5131C110.22 76.5044 110.307 76.5326 110.366 76.5977C110.424 76.6628 110.456 76.7351 110.462 76.8147C110.465 76.8519 110.399 76.9395 110.265 77.0776C110.137 77.2153 109.957 77.3808 109.726 77.5741C109.499 77.7618 109.242 77.9598 108.953 78.1681C108.669 78.3707 108.371 78.5663 108.06 78.755C107.753 78.9379 107.452 79.0884 107.156 79.2065C106.867 79.3295 106.6 79.4 106.355 79.4182ZM106.213 77.0666C106.421 76.923 106.626 76.7743 106.828 76.6205C107.035 76.4609 107.204 76.2883 107.334 76.1024C107.464 75.9112 107.52 75.6962 107.502 75.4573C107.497 75.3883 107.475 75.3445 107.436 75.3261C107.397 75.3023 107.343 75.293 107.274 75.2981C107.088 75.3119 106.925 75.4068 106.783 75.5829C106.647 75.7585 106.53 75.9807 106.432 76.2495C106.34 76.5127 106.266 76.785 106.213 77.0666ZM113.107 81.0622C112.921 81.0761 112.778 81.02 112.678 80.8939C112.583 80.7728 112.529 80.6114 112.514 80.4097C112.512 80.3885 112.518 80.2892 112.532 80.1121C112.55 79.9345 112.576 79.7057 112.609 79.4257C112.641 79.1457 112.677 78.8334 112.715 78.4889C112.753 78.1391 112.793 77.7811 112.835 77.415C112.877 77.0436 112.917 76.6856 112.956 76.3411C112.76 76.7881 112.548 77.2042 112.32 77.5895C112.092 77.9747 111.854 78.2887 111.605 78.5314C111.356 78.7688 111.104 78.897 110.849 78.9159C110.515 78.9408 110.249 78.8564 110.054 78.6628C109.863 78.4688 109.756 78.2098 109.732 77.886C109.709 77.5887 109.761 77.2752 109.886 76.9456C110.016 76.6104 110.191 76.277 110.412 75.9456C110.638 75.6085 110.889 75.2883 111.165 74.9848C111.447 74.6809 111.731 74.4089 112.018 74.1687C112.304 73.9286 112.57 73.738 112.816 73.5969C113.067 73.4502 113.272 73.3709 113.431 73.359C113.633 73.344 113.782 73.3756 113.878 73.4539C113.98 73.5264 114.038 73.6635 114.053 73.8653C114.06 73.9661 114.058 74.1478 114.045 74.4103C114.033 74.6728 114.014 74.9866 113.987 75.3515C113.961 75.7165 113.929 76.1086 113.891 76.5278C113.858 76.9466 113.822 77.3683 113.784 77.7929C113.746 78.2121 113.709 78.6099 113.673 78.9863C113.637 79.3626 113.605 79.6933 113.579 79.9782C113.552 80.2631 113.53 80.4729 113.513 80.6076C113.502 80.7419 113.464 80.8488 113.401 80.9283C113.337 81.0077 113.239 81.0524 113.107 81.0622ZM110.741 78.0031C110.879 77.9928 111.028 77.9097 111.187 77.7537C111.346 77.5925 111.509 77.3855 111.677 77.1328C111.845 76.8747 112.011 76.5875 112.174 76.2711C112.337 75.9547 112.492 75.6335 112.639 75.3077C112.79 74.9761 112.924 74.6618 113.041 74.3649C112.749 74.6054 112.459 74.8699 112.171 75.1582C111.883 75.4413 111.622 75.7383 111.389 76.0492C111.155 76.3548 110.973 76.6647 110.841 76.9787C110.71 77.2928 110.655 77.6011 110.678 77.9037C110.68 77.9303 110.684 77.954 110.691 77.9748C110.698 77.9956 110.715 78.0051 110.741 78.0031ZM118.378 78.6124C118.256 78.6215 118.141 78.5794 118.032 78.486C117.93 78.3975 117.87 78.2392 117.853 78.0109C117.84 77.841 117.836 77.6038 117.84 77.2992C117.849 76.9889 117.878 76.589 117.927 76.0996C117.769 76.4957 117.601 76.8499 117.421 77.1622C117.242 77.4744 117.06 77.7228 116.876 77.9073C116.697 78.0861 116.52 78.182 116.345 78.1951C116.064 78.216 115.834 78.1476 115.657 77.99C115.48 77.827 115.373 77.5066 115.337 77.0288C115.32 76.8005 115.32 76.5417 115.336 76.2522C115.357 75.9624 115.389 75.6717 115.431 75.3803C115.473 75.0889 115.518 74.8293 115.565 74.6016C115.617 74.3682 115.666 74.1938 115.711 74.0783C115.746 73.9796 115.794 73.9014 115.853 73.8435C115.918 73.7853 116.004 73.7522 116.11 73.7444C116.28 73.7317 116.414 73.7778 116.513 73.8826C116.611 73.9874 116.665 74.0981 116.674 74.2149C116.68 74.3052 116.669 74.4368 116.639 74.6099C116.614 74.7825 116.581 74.9746 116.538 75.1859C116.5 75.3969 116.46 75.6134 116.418 75.8355C116.376 76.0575 116.34 76.2656 116.312 76.4599C116.289 76.6538 116.283 76.8171 116.292 76.9498C116.305 77.1144 116.375 77.1919 116.502 77.1825C116.576 77.1769 116.667 77.0982 116.773 76.9461C116.884 76.7937 116.997 76.5931 117.112 76.3443C117.232 76.0899 117.35 75.8142 117.467 75.5172C117.589 75.2146 117.697 74.9102 117.792 74.6043C117.891 74.2926 117.974 74.0062 118.04 73.745C118.081 73.5818 118.145 73.465 118.23 73.3946C118.316 73.3242 118.417 73.2846 118.534 73.2759C118.714 73.2625 118.856 73.3027 118.959 73.3964C119.067 73.4898 119.128 73.6294 119.142 73.8152C119.149 73.9002 119.146 74.0445 119.134 74.2482C119.123 74.4519 119.106 74.6907 119.084 74.9646C119.067 75.2382 119.043 75.5282 119.012 75.8348C118.982 76.1413 118.951 76.4426 118.919 76.7385C118.893 77.034 118.865 77.3057 118.836 77.5535C118.806 77.7959 118.78 77.99 118.759 78.1357C118.722 78.352 118.667 78.4842 118.596 78.5322C118.525 78.5802 118.452 78.6069 118.378 78.6124ZM121.569 78.2871C121.24 78.3116 120.966 78.2172 120.747 78.0039C120.528 77.7853 120.399 77.4185 120.361 76.9036C120.337 76.5744 120.349 76.2425 120.399 75.9078C120.454 75.5674 120.539 75.2434 120.655 74.9359C120.776 74.6226 120.921 74.3423 121.089 74.0949C121.263 73.8471 121.459 73.6483 121.677 73.4986C121.895 73.3436 122.127 73.257 122.371 73.2389C122.785 73.2081 123.117 73.2955 123.367 73.5011C123.617 73.7067 123.755 73.9821 123.781 74.3272C123.801 74.5926 123.744 74.8397 123.612 75.0684C123.484 75.2914 123.302 75.4971 123.065 75.6856C122.828 75.874 122.561 76.0487 122.263 76.2096C121.966 76.3705 121.659 76.5188 121.343 76.6544C121.331 76.8475 121.33 77.0183 121.342 77.167C121.348 77.2572 121.402 77.2986 121.503 77.2911C121.742 77.2733 121.994 77.2172 122.259 77.1228C122.529 77.0226 122.8 76.901 123.073 76.758C123.345 76.6097 123.606 76.4595 123.856 76.3074C124.106 76.15 124.332 76.0024 124.536 75.8645C124.744 75.7209 124.914 75.6068 125.047 75.5222C125.184 75.4319 125.274 75.3852 125.317 75.3821C125.433 75.3734 125.521 75.4016 125.579 75.4666C125.637 75.5317 125.669 75.6041 125.675 75.6837C125.678 75.7209 125.613 75.8085 125.479 75.9465C125.35 76.0842 125.17 76.2497 124.939 76.4431C124.713 76.6307 124.455 76.8287 124.167 77.037C123.883 77.2396 123.585 77.4353 123.273 77.6239C122.967 77.8069 122.665 77.9574 122.37 78.0754C122.08 78.1984 121.813 78.269 121.569 78.2871ZM121.426 75.9355C121.634 75.7919 121.839 75.6432 122.042 75.4894C122.249 75.3299 122.417 75.1572 122.548 74.9714C122.678 74.7802 122.734 74.5652 122.716 74.3263C122.711 74.2572 122.689 74.2135 122.65 74.195C122.611 74.1712 122.557 74.1619 122.488 74.1671C122.302 74.1809 122.138 74.2758 121.996 74.4518C121.86 74.6274 121.743 74.8497 121.646 75.1185C121.553 75.3816 121.48 75.654 121.426 75.9355ZM126.033 78.0913C125.805 78.1083 125.641 78.0885 125.541 78.0319C125.446 77.9749 125.393 77.8853 125.384 77.7632C125.377 77.6571 125.407 77.564 125.476 77.4842C125.544 77.399 125.703 77.3072 125.952 77.2086C126.242 77.0962 126.516 76.9718 126.773 76.8353C127.034 76.693 127.245 76.5439 127.404 76.3879C127.569 76.2316 127.645 76.0738 127.633 75.9145C127.625 75.8083 127.582 75.7341 127.505 75.6918C127.432 75.6492 127.348 75.6314 127.252 75.6385C127.173 75.6444 127.057 75.6664 126.905 75.7044C126.758 75.7367 126.595 75.7781 126.418 75.8287C126.24 75.874 126.067 75.9162 125.899 75.9554C125.736 75.9888 125.596 76.0099 125.479 76.0186C125.203 76.0391 124.994 75.9933 124.852 75.881C124.71 75.7635 124.632 75.6065 124.617 75.4101C124.609 75.3039 124.654 75.1537 124.752 74.9596C124.849 74.7655 124.983 74.5501 125.152 74.3133C125.321 74.0765 125.512 73.8381 125.723 73.5982C125.935 73.3582 126.151 73.1367 126.371 72.9335C126.595 72.7246 126.81 72.5565 127.014 72.4293C127.217 72.2967 127.394 72.2249 127.542 72.2138C127.712 72.2012 127.851 72.2442 127.96 72.3429C128.074 72.4412 128.138 72.5806 128.151 72.7611C128.158 72.846 128.157 72.9395 128.148 73.0416C128.139 73.1383 128.106 73.2289 128.048 73.3132C127.99 73.3923 127.896 73.4527 127.766 73.4944C127.635 73.5361 127.454 73.5442 127.223 73.5187C127.052 73.6649 126.875 73.8249 126.69 73.9988C126.51 74.1669 126.342 74.3423 126.185 74.5248C126.027 74.702 125.898 74.8744 125.799 75.0419C125.99 74.9636 126.21 74.8966 126.456 74.8409C126.703 74.7799 126.953 74.7399 127.208 74.721C127.516 74.6981 127.77 74.7353 127.969 74.8325C128.173 74.9241 128.327 75.0568 128.431 75.2306C128.54 75.404 128.603 75.5995 128.619 75.8172C128.637 76.0614 128.576 76.3115 128.434 76.5676C128.293 76.8236 128.098 77.0624 127.847 77.2839C127.597 77.5054 127.314 77.6892 126.999 77.8354C126.684 77.9815 126.363 78.0669 126.033 78.0913ZM134.814 72.9944C134.818 73.0582 134.801 73.1155 134.762 73.1664C134.724 73.2174 134.673 73.2585 134.611 73.2897C134.524 73.3336 134.371 73.393 134.152 73.468C133.934 73.543 133.668 73.6295 133.355 73.7275C133.047 73.8251 132.716 73.9271 132.361 74.0336C132.005 74.1348 131.649 74.2333 131.294 74.3291C131.193 74.8491 131.092 75.3851 130.989 75.9373C130.885 76.4841 130.781 77.023 130.677 77.554C130.637 77.7437 130.584 77.8892 130.517 77.9902C130.45 78.0966 130.326 78.1565 130.146 78.17C129.949 78.1846 129.812 78.1307 129.733 78.0084C129.661 77.8911 129.64 77.7244 129.672 77.5085C129.767 76.9196 129.855 76.3713 129.934 75.8635C130.019 75.3554 130.087 74.9446 130.139 74.6312C129.824 74.708 129.549 74.7712 129.312 74.8208C129.075 74.8651 128.906 74.8883 128.805 74.8905C128.693 74.8882 128.596 74.85 128.516 74.7759C128.436 74.7017 128.394 74.6061 128.391 74.4889C128.393 74.3819 128.435 74.2881 128.514 74.2075C128.593 74.1215 128.69 74.0663 128.806 74.0417C128.969 74.0135 129.18 73.9738 129.438 73.9226C129.695 73.8714 129.979 73.8129 130.289 73.7472C130.338 73.4713 130.397 73.1867 130.466 72.8933C130.535 72.5946 130.607 72.3089 130.683 72.0364C130.763 71.7581 130.841 71.5148 130.917 71.3063C130.992 71.0979 131.063 70.9458 131.131 70.85C131.184 70.7766 131.252 70.7182 131.334 70.6747C131.422 70.6309 131.508 70.6058 131.593 70.5995C131.704 70.5912 131.798 70.6243 131.872 70.6988C131.947 70.7733 131.989 70.8636 131.997 70.9698C132 71.0123 132.001 71.0576 131.999 71.1058C131.997 71.1486 131.989 71.1919 131.976 71.2356C131.895 71.5085 131.81 71.8378 131.722 72.2234C131.638 72.6086 131.552 73.0314 131.464 73.4917C131.857 73.4037 132.243 73.3163 132.621 73.2295C133.004 73.137 133.35 73.0526 133.659 72.9762C133.973 72.8941 134.225 72.8247 134.413 72.768C134.516 72.723 134.607 72.7242 134.685 72.7718C134.763 72.814 134.806 72.8883 134.814 72.9944ZM134.988 77.4256C134.76 77.4426 134.596 77.4227 134.496 77.3661C134.401 77.3091 134.349 77.2196 134.34 77.0975C134.332 76.9913 134.362 76.8983 134.431 76.8184C134.499 76.7333 134.658 76.6414 134.907 76.5428C135.197 76.4305 135.471 76.306 135.728 76.1695C135.99 76.0273 136.2 75.8782 136.359 75.7222C136.524 75.5658 136.6 75.408 136.588 75.2487C136.58 75.1426 136.538 75.0683 136.46 75.0261C136.387 74.9834 136.303 74.9657 136.207 74.9728C136.128 74.9787 136.012 75.0006 135.86 75.0386C135.713 75.0709 135.551 75.1124 135.373 75.1629C135.195 75.2082 135.022 75.2504 134.854 75.2896C134.691 75.3231 134.551 75.3442 134.434 75.3528C134.158 75.3734 133.949 75.3275 133.807 75.2153C133.665 75.0977 133.587 74.9407 133.572 74.7443C133.564 74.6381 133.609 74.488 133.707 74.2939C133.804 74.0998 133.938 73.8843 134.107 73.6475C134.276 73.4107 134.467 73.1724 134.678 72.9324C134.89 72.6925 135.106 72.4709 135.326 72.2677C135.55 72.0589 135.765 71.8908 135.969 71.7635C136.173 71.6309 136.349 71.5591 136.497 71.548C136.667 71.5354 136.807 71.5784 136.915 71.6771C137.029 71.7754 137.093 71.9148 137.107 72.0953C137.113 72.1802 137.112 72.2737 137.103 72.3758C137.095 72.4725 137.061 72.5631 137.003 72.6475C136.945 72.7265 136.851 72.7869 136.721 72.8287C136.59 72.8704 136.409 72.8785 136.178 72.853C136.007 72.9991 135.83 73.1591 135.645 73.333C135.465 73.5012 135.297 73.6765 135.14 73.859C134.982 74.0362 134.853 74.2086 134.754 74.3762C134.945 74.2979 135.165 74.2309 135.411 74.1751C135.658 74.1141 135.908 74.0741 136.163 74.0552C136.471 74.0323 136.725 74.0695 136.924 74.1668C137.129 74.2583 137.283 74.391 137.386 74.5648C137.495 74.7382 137.558 74.9338 137.574 75.1514C137.592 75.3956 137.531 75.6458 137.39 75.9018C137.248 76.1579 137.053 76.3966 136.802 76.6181C136.552 76.8396 136.269 77.0234 135.954 77.1696C135.64 77.3158 135.318 77.4011 134.988 77.4256Z" fill="black"/>
<path d="M38.279 85.4417C71.0199 80.4466 103.761 75.4516 120.534 72.8312C137.307 70.2108 137.119 70.1165 136.809 69.9188" stroke="#1C1C1C" stroke-width="0.923693" stroke-linecap="round"/>
<path d="M144.794 156.488L148.97 156.242" stroke="#1C1C1C" stroke-width="0.923693" stroke-linecap="round"/>
<path d="M153.655 155.819L157.053 155.971" stroke="#1C1C1C" stroke-width="0.923693" stroke-linecap="round"/>
<path d="M160.266 155.608L161.016 155.451" stroke="#1C1C1C" stroke-width="0.923693" stroke-linecap="round"/>
<defs>
<filter id="filter0_d_14535_15764" x="14.5838" y="19.2391" width="156.061" height="157.959" filterUnits="userSpaceOnUse" color-interpolation-filters="sRGB">
<feFlood flood-opacity="0" result="BackgroundImageFix"/>
<feColorMatrix in="SourceAlpha" type="matrix" values="0 0 0 0 0 0 0 0 0 0 0 0 0 0 0 0 0 0 127 0" result="hardAlpha"/>
<feOffset dx="-1" dy="-1"/>
<feGaussianBlur stdDeviation="0.9"/>
<feComposite in2="hardAlpha" operator="out"/>
<feColorMatrix type="matrix" values="0 0 0 0 0 0 0 0 0 0 0 0 0 0 0 0 0 0 0.64 0"/>
<feBlend mode="normal" in2="BackgroundImageFix" result="effect1_dropShadow_14535_15764"/>
<feBlend mode="normal" in="SourceGraphic" in2="effect1_dropShadow_14535_15764" result="shape"/>
</filter>
<linearGradient id="paint0_linear_14535_15764" x1="86.8162" y1="15.421" x2="100.953" y2="169.105" gradientUnits="userSpaceOnUse">
<stop stop-color="#D4C507"/>
<stop offset="0.189605" stop-color="#F9EC4B"/>
</linearGradient>
</defs>
</svg>
